<svg xmlns="http://www.w3.org/2000/svg" viewBox="0 0 1728.924 1316.471">
  <path id="background-shape" d="M216.5,3492.112c.123.013.241.027.366.039,153.1,16.943,291.6-65.548,443.593-60.238q16.386.575,32.48,2.4c72.86,8.15,141.369,33.875,209.939,59.608s137.191,51.475,210.253,59.647q7.734.862,15.528,1.461c362.089,27.547,660.218-347.875,613.746-622.78-9.992-59.1-44.354-83.2-86.1-87.877-32.457-3.627-69.375,4.473-102.812,17-29.469,11.037-60.782,24.525-91.89,21.043a83.449,83.449,0,0,1-11.878-2.2c-48.024-12.573-67.012-66-60.731-107.217,7.778-51.046,50.357-92.027,84.954-128.964,147.233-157.2,22.342-238.622-67.157-248.635-1.049-.116-2.076-.22-3.116-.32-109.3-10.289-214.188,54.46-321.9,42.406a220.844,220.844,0,0,1-29.762-5.38c-120.595-30.56-191.312-171.437-357.956-190.081-34.569-3.869-73.238-2.479-117.369,6.244-155.94,30.82-280.579,153.57-291.271,371.436-7.505,152.982,29.971,207.982,11.217,264.369-46.57,140-190.856,207.358-254.183,328.084C-27.167,3344.88,60.539,3474.661,216.5,3492.112" transform="translate(-18.276 -2239.993)" fill="#bddddc" opacity="0.2"/>
</svg>
