<svg viewBox="0 0 15 16" fill="none" xmlns="http://www.w3.org/2000/svg">
<path fill-rule="evenodd" clip-rule="evenodd" d="M12.8 1.6H12V0.8C12 0.36 11.64 0 11.2 0C10.76 0 10.4 0.36 10.4 0.8V1.6H4V0.8C4 0.36 3.64 0 3.2 0C2.76 0 2.4 0.36 2.4 0.8V1.6H1.6C0.712 1.6 0.008 2.32 0.008 3.2L0 14.4C0 15.28 0.712 16 1.6 16H12.8C13.68 16 14.4 15.28 14.4 14.4V3.2C14.4 2.32 13.68 1.6 12.8 1.6ZM12.8 13.6C12.8 14.04 12.44 14.4 12 14.4H2.39995C1.95995 14.4 1.59995 14.04 1.59995 13.6V4.8H12.8V13.6ZM4.79995 7.2H3.19995V8.8H4.79995V7.2ZM6.39995 7.2H7.99995V8.8H6.39995V7.2ZM11.2 7.2H9.59995V8.8H11.2V7.2Z" fill="#27AE60"/>
</svg>
