<svg viewBox="0 0 20 20" fill="none" xmlns="http://www.w3.org/2000/svg">
<path fill-rule="evenodd" clip-rule="evenodd" d="M8.13333 6.03319C8.13333 6.41959 8.44693 6.73319 8.83333 6.73319H17.7C18.0866 6.73319 18.4 6.41979 18.4 6.03319C18.4 5.64659 18.0866 5.33319 17.7 5.33319H8.83333C8.44673 5.33319 8.13333 5.64659 8.13333 6.03319ZM4.86666 3.46652V8.13319H3.46666V4.11986H2.53333V3.18652H4.86666V3.46652ZM1.92013 17.3331L4.33746 14.2932H4.32533C4.46082 14.0578 4.40789 13.7592 4.19977 13.5847C3.99165 13.4102 3.68833 13.4102 3.48021 13.5847C3.2721 13.7592 3.21917 14.0578 3.35466 14.2932H1.88186C1.84741 13.6049 2.19502 12.9536 2.78604 12.5991C3.37706 12.2446 4.11532 12.2446 4.70634 12.5991C5.29736 12.9536 5.64497 13.6049 5.61053 14.2932H5.60959C5.56479 14.6712 5.46026 14.9783 5.29879 15.2153C5.13546 15.4524 4.74813 15.8612 4.13773 16.4399H5.61333V17.3732H1.87999L1.92013 17.3331ZM8.13333 14.4332C8.13333 14.0466 8.44673 13.7332 8.83333 13.7332H17.7C18.0866 13.7332 18.4 14.0466 18.4 14.4332C18.4 14.8198 18.0866 15.1332 17.7 15.1332H8.83333C8.44673 15.1332 8.13333 14.8198 8.13333 14.4332Z" fill="#394C4A"/>
</svg>
