<svg viewBox="0 0 28 28" fill="none" xmlns="http://www.w3.org/2000/svg">
<path fill-rule="evenodd" clip-rule="evenodd" d="M11.3387 6.3151C12.6372 5.93952 14.0096 5.89899 15.328 6.19728C16.6464 6.49558 17.8677 7.12299 18.878 8.02096C19.8883 8.91893 20.6547 10.0582 21.1056 11.3325C21.2898 11.8531 21.0171 12.4245 20.4965 12.6088C19.9758 12.793 19.4044 12.5203 19.2202 11.9996C18.8819 11.0439 18.3071 10.1894 17.5493 9.51583C16.7915 8.8423 15.8755 8.37171 14.8866 8.14797C13.8978 7.92423 12.8684 7.95464 11.8945 8.23634C10.9205 8.51805 10.0338 9.04188 9.31712 9.75896C9.30973 9.76635 9.30223 9.77363 9.29461 9.78079L7.52455 11.444H9.66789C10.2202 11.444 10.6679 11.8918 10.6679 12.444C10.6679 12.9963 10.2202 13.444 9.66789 13.444H5C4.44772 13.444 4 12.9963 4 12.444V7.77614C4 7.22386 4.44772 6.77614 5 6.77614C5.55228 6.77614 6 7.22386 6 7.77614V10.1322L7.91402 8.33366C8.86755 7.3835 10.0455 6.68918 11.3387 6.3151ZM16.4477 15.556C16.4477 15.0037 16.8954 14.556 17.4477 14.556H22.1156C22.6679 14.556 23.1156 15.0037 23.1156 15.556V20.2239C23.1156 20.7761 22.6679 21.2239 22.1156 21.2239C21.5633 21.2239 21.1156 20.7761 21.1156 20.2239V17.8678L19.2016 19.6663C18.2481 20.6165 17.0702 21.3108 15.7769 21.6849C14.4784 22.0605 13.106 22.101 11.7876 21.8027C10.4692 21.5044 9.24792 20.877 8.23761 19.979C7.22731 19.0811 6.46094 17.9418 6.01002 16.6675C5.82578 16.1469 6.09849 15.5755 6.61914 15.3912C7.13979 15.207 7.71121 15.4797 7.89545 16.0003C8.23367 16.9561 8.80849 17.8106 9.56627 18.4842C10.3241 19.1577 11.2401 19.6283 12.229 19.852C13.2178 20.0758 14.2472 20.0454 15.2212 19.7637C16.1951 19.4819 17.0818 18.9581 17.7985 18.241C17.8059 18.2336 17.8134 18.2264 17.821 18.2192L19.5911 16.556H17.4477C16.8954 16.556 16.4477 16.1082 16.4477 15.556Z" fill="#49A49C"/>
</svg>
