<svg viewBox="0 0 64 64" fill="none" xmlns="http://www.w3.org/2000/svg">
<path fill-rule="evenodd" clip-rule="evenodd" d="M49.835 22.3899C47.4621 22.0805 45.4227 22.8855 43.6475 24.979C43.6475 24.2087 43.6479 23.461 43.6483 22.7302L43.6483 22.7162C43.6494 20.5745 43.6505 18.5777 43.6415 16.5809C43.641 16.4995 43.6453 16.4158 43.6497 16.3314C43.6698 15.9427 43.6907 15.54 43.239 15.2833C41.9415 14.5444 40.5868 15.3194 40.5748 16.8122C40.5748 16.8852 40.5752 16.9585 40.5755 17.0319V17.0322V17.0325V17.0328V17.0331C40.5762 17.1799 40.5768 17.3271 40.5748 17.473C40.5413 19.9963 40.5594 22.5199 40.5775 25.0436V25.0436V25.0437V25.0437V25.0438C40.6079 29.2972 40.6384 33.5506 40.4216 37.8015C40.3856 38.5374 40.6199 39.024 41.4489 38.9609C41.6061 38.9485 41.7745 38.958 41.9435 38.9676C42.549 39.002 43.1616 39.0368 43.2931 38.0598C43.3073 37.9546 43.3006 37.843 43.2939 37.7302C43.2777 37.4596 43.2612 37.1824 43.5304 36.9725C46.7172 40.4477 50.619 39.7058 52.7996 37.9036C55.9143 35.3295 56.482 31.8273 55.662 28.0637C54.9412 24.7628 52.9077 22.7924 49.835 22.3899ZM52.4782 28.4903C52.7095 29.2622 52.7936 30.0431 52.7665 30.8421C52.8056 31.8693 52.6043 32.8575 52.2289 33.8097C51.4389 35.8281 49.7389 36.9184 47.7024 36.7232C45.696 36.531 44.0891 35.1103 43.7497 33.0468C43.5184 31.6591 43.5034 30.2264 43.7677 28.8387C44.2152 26.5079 45.8522 25.0511 47.9848 24.955C50.1444 24.8589 51.7844 26.1535 52.4782 28.4903ZM37.5622 25.1051C35.769 21.8462 32.9216 20.1522 30.1312 20.0771C24.3463 20.0621 20.3304 23.5432 19.5615 28.4001C18.8647 32.7944 21.7331 37.3359 26.1094 38.8197C28.3351 39.5736 30.5097 39.4294 32.7024 38.6575C34.1411 38.1499 34.7658 38.5944 34.868 40.0962C34.907 40.6459 35.0572 41.1385 35.3906 41.562C37.7695 44.5626 40.1543 47.5572 42.5482 50.5458C43.0468 51.1676 43.7136 51.4619 44.5246 51.4079C45.5428 51.3388 46.2487 50.8162 46.7082 49.9271C47.1918 48.993 47.0296 48.1339 46.4019 47.3409L46.4018 47.3409C44.1041 44.4454 41.8063 41.55 39.4995 38.6605C39.1692 38.246 38.7607 37.9186 38.2501 37.7173C36.2827 36.9364 36.1896 36.585 37.2739 34.7768C39.1662 31.614 39.3374 28.334 37.5622 25.1051ZM29.2001 22.5701C33.1199 22.6061 36.1655 25.7179 36.1595 29.6796C36.1505 33.7526 33.0988 36.8042 29.068 36.7652C25.1002 36.7322 22.1206 33.6895 22.1236 29.6737C22.1266 25.6188 25.1993 22.534 29.2001 22.5701ZM17.9666 25.6608C17.9133 26.5738 17.9332 27.5636 17.9541 28.6002C17.9885 30.3087 18.0254 32.1447 17.7413 33.9748C16.9333 39.1981 12.0434 39.9701 8.68538 39.0059C7.86251 38.7708 7.96586 38.2204 8.06866 37.673C8.08668 37.577 8.10469 37.4811 8.11769 37.3869C8.21381 36.7051 8.44209 36.3176 9.31614 36.4018C13.5272 36.8072 14.5424 36.1194 14.7707 31.9053C14.9739 28.1541 14.9356 24.3912 14.8972 20.6292V20.6291V20.6291V20.6291V20.6291C14.888 19.7191 14.8787 18.8091 14.8728 17.8994C14.8638 16.728 15.2843 16.3856 16.4107 16.3676C17.6362 16.3496 18.0236 16.7971 17.9906 17.9926C17.938 19.6608 17.9473 21.329 17.9576 23.1767V23.1768V23.1769V23.177C17.962 23.9674 17.9666 24.7906 17.9666 25.6608ZM23.8086 29.4695H34.6096V33.1369H23.8086V29.4695ZM23.8086 26.7451V29.0219H34.6096V26.7451H23.8086ZM29.942 28.7906H28.5663C28.275 28.7906 28.0347 28.5353 28.0347 28.2199C28.0347 27.9045 28.275 27.6492 28.5663 27.6492H29.942C30.2334 27.6492 30.4737 27.9045 30.4737 28.2199C30.4737 28.5353 30.2334 28.7906 29.942 28.7906ZM27.8665 26.5439H30.8221C30.9903 26.5439 31.1254 26.4057 31.1254 26.2405V26.2105C31.1254 26.0423 30.9873 25.9071 30.8221 25.9071H27.8665C27.6983 25.9071 27.5631 26.0453 27.5631 26.2105V26.2405C27.5631 26.4087 27.7013 26.5439 27.8665 26.5439Z" fill="#49A49C"/>
</svg>
