<svg viewBox="0 0 100 100" fill="none" xmlns="http://www.w3.org/2000/svg">
<path d="M54.1665 54.3335C54.1665 56.5426 52.3756 58.3335 50.1665 58.3335H49.8332C47.624 58.3335 45.8332 56.5426 45.8332 54.3335V41.5002C45.8332 39.291 47.624 37.5002 49.8332 37.5002H50.1665C52.3756 37.5002 54.1665 39.291 54.1665 41.5002V54.3335ZM54.1665 71.0002C54.1665 73.2093 52.3756 75.0002 50.1665 75.0002H49.8332C47.624 75.0002 45.8332 73.2093 45.8332 71.0002V70.6668C45.8332 68.4577 47.624 66.6668 49.8332 66.6668H50.1665C52.3756 66.6668 54.1665 68.4577 54.1665 70.6668V71.0002ZM7.64259 81.496C6.09873 84.1627 8.02296 87.5002 11.1043 87.5002H88.8954C91.9767 87.5002 93.9009 84.1627 92.3571 81.496L53.4615 14.3128C51.9209 11.6517 48.0788 11.6517 46.5381 14.3128L7.64259 81.496Z" fill="#49A49C"/>
</svg>
