<svg viewBox="0 0 20 20" fill="none" xmlns="http://www.w3.org/2000/svg">
<path fill-rule="evenodd" clip-rule="evenodd" d="M9.6136 14.3238L9.6332 14.3275C9.5996 14.6402 9.72187 14.9388 10 15.2254C10.0765 15.3028 10.1615 15.3654 10.2557 15.413H11.6315C11.9407 15.413 12.1915 15.6637 12.1915 15.973C12.1915 16.2823 11.9407 16.533 11.6315 16.533H5.61707C5.30779 16.533 5.05707 16.2823 5.05707 15.973C5.05707 15.6637 5.30779 15.413 5.61707 15.413H6.6904C7.1328 15.3476 7.44547 15.2431 7.6284 15.1012C7.77493 14.9874 7.9 14.8026 8.00547 14.544L10.2604 5.63071C10.2877 5.34884 10.1921 5.06888 9.99813 4.86258C9.8848 4.73869 9.7433 4.64393 9.5856 4.58631H8.27333C7.96405 4.58631 7.71333 4.33559 7.71333 4.02631C7.71333 3.71703 7.96405 3.46631 8.27333 3.46631H14.2868C14.5961 3.46631 14.8468 3.71703 14.8468 4.02631C14.8468 4.33559 14.5961 4.58631 14.2868 4.58631H13.1715C12.8205 4.63858 12.5648 4.73098 12.4033 4.86258C12.2027 5.02591 12.0085 5.27231 11.8219 5.59991L9.6136 14.3238Z" fill="#394C4A"/>
</svg>
