<svg width="21" height="21" viewBox="0 0 21 21" fill="none" xmlns="http://www.w3.org/2000/svg">
<path fill-rule="evenodd" clip-rule="evenodd" d="M11.375 10.5C9.74414 10.5 8.3738 9.38457 7.98527 7.875H1.75V6.125H7.98527C8.3738 4.61543 9.74414 3.5 11.375 3.5C13.308 3.5 14.875 5.067 14.875 7C14.875 8.933 13.308 10.5 11.375 10.5ZM13.125 7C13.125 7.9665 12.3415 8.75 11.375 8.75C10.4085 8.75 9.625 7.9665 9.625 7C9.625 6.0335 10.4085 5.25 11.375 5.25C12.3415 5.25 13.125 6.0335 13.125 7Z" fill="#49A49C"/>
<path d="M15.75 6.125H19.25V7.875H15.75V6.125Z" fill="#49A49C"/>
<path fill-rule="evenodd" clip-rule="evenodd" d="M7 17.5C5.36914 17.5 3.9988 16.3846 3.61027 14.875H1.75V13.125H3.61027C3.9988 11.6154 5.36914 10.5 7 10.5C8.933 10.5 10.5 12.067 10.5 14C10.5 15.933 8.933 17.5 7 17.5ZM8.75 14C8.75 14.9665 7.9665 15.75 7 15.75C6.0335 15.75 5.25 14.9665 5.25 14C5.25 13.0335 6.0335 12.25 7 12.25C7.9665 12.25 8.75 13.0335 8.75 14Z" fill="#49A49C"/>
<path d="M11.375 14.875H19.25V13.125H11.375V14.875Z" fill="#49A49C"/>
</svg>
