<svg viewBox="0 0 20 20" fill="none" xmlns="http://www.w3.org/2000/svg">
<path fill-rule="evenodd" clip-rule="evenodd" d="M1 3C0.447715 3 0 3.44772 0 4V4.33333C0 4.88562 0.447715 5.33333 1 5.33333H19C19.5523 5.33333 20 4.88562 20 4.33333V4C20 3.44772 19.5523 3 19 3H1ZM0 10.1666C0 10.7189 0.447715 11.1666 1 11.1666H19C19.5523 11.1666 20 10.7189 20 10.1666V9.83325C20 9.28097 19.5523 8.83325 19 8.83325H1C0.447715 8.83325 0 9.28097 0 9.83325V10.1666ZM1 17.0001C0.447715 17.0001 0 16.5524 0 16.0001V15.6667C0 15.1145 0.447716 14.6667 1 14.6667H19C19.5523 14.6667 20 15.1145 20 15.6667V16.0001C20 16.5524 19.5523 17.0001 19 17.0001H1Z" fill="#49A49C"/>
</svg>
