<svg viewBox="0 0 469 469" fill="none" xmlns="http://www.w3.org/2000/svg">
<g clip-path="url(#clip0)">
<path d="M337.335 0H95.219C84.874 0 76.488 8.386 76.488 18.732V449.561C76.488 459.906 84.874 468.293 95.22 468.293H401.17C411.515 468.293 419.902 459.907 419.902 449.561V82.567L337.335 0Z" fill="#E1E6E9"/>
<path d="M337.336 82.567H419.902L337.335 0L337.336 82.567Z" fill="#EBF0F3"/>
<path d="M353.221 82.567L419.902 121.255V82.567H353.221Z" fill="#D5D6DB"/>
<g clip-path="url(#clip1)">
<path d="M353.001 212.715V334.069C353.001 347.154 342.4 357.812 329.384 357.812H166.693C165.644 357.812 164.595 357.706 163.649 357.6C152.629 356.23 144.023 347.154 143.183 335.968C143.077 335.335 143.077 334.701 143.077 334.069V212.715C143.077 199.63 153.678 188.972 166.693 188.972H329.384C342.4 188.972 353.001 199.63 353.001 212.715V212.715Z" fill="#ECEFF1"/>
<path fill-rule="evenodd" clip-rule="evenodd" d="M143.183 335.968C144.023 347.154 152.629 356.23 163.649 357.6C164.595 357.706 165.644 357.812 166.693 357.812H329.384C342.4 357.812 353.001 347.154 353.001 334.069V212.715C353.001 199.63 342.4 188.972 329.384 188.972H166.693C153.678 188.972 143.077 199.63 143.077 212.715V334.069C143.077 334.701 143.077 335.335 143.183 335.968ZM164.238 352.634C155.619 351.549 148.832 344.421 148.169 335.594L148.152 335.369L148.115 335.146C148.088 334.987 148.077 334.767 148.077 334.069V212.715C148.077 202.366 156.465 193.972 166.693 193.972H329.384C339.613 193.972 348.001 202.366 348.001 212.715V334.069C348.001 344.418 339.613 352.812 329.384 352.812H166.693C165.956 352.812 165.158 352.737 164.238 352.634Z" fill="#C8C8C8"/>
<path d="M216.549 241.735C216.549 253.39 207.151 262.84 195.558 262.84C183.963 262.84 174.565 253.39 174.565 241.735C174.565 230.08 183.963 220.629 195.558 220.629C207.151 220.629 216.549 230.08 216.549 241.735Z" fill="#FFC107"/>
<path d="M353.001 304.416V334.069C353.001 347.154 342.399 357.812 329.384 357.812H166.693C165.644 357.812 164.595 357.706 163.649 357.6L271.76 248.911C278.898 241.735 290.652 241.735 297.79 248.911L353.001 304.416Z" fill="#388E3C"/>
<path d="M290.652 357.812H166.693C165.644 357.812 164.594 357.706 163.649 357.6C152.629 356.23 144.022 347.154 143.182 335.969L193.038 285.843C200.176 278.669 211.931 278.669 219.069 285.843L290.652 357.812Z" fill="#4CAF50"/>
</g>
</g>
<defs>
<clipPath id="clip0">
<rect width="468.293" height="468.293" fill="white"/>
</clipPath>
<clipPath id="clip1">
<rect width="210" height="169" fill="white" transform="translate(143 189)"/>
</clipPath>
</defs>
</svg>
