<svg viewBox="0 0 64 64" fill="none" xmlns="http://www.w3.org/2000/svg">
<path d="M31.9965 8C45.2729 8.00353 56.0071 18.7977 56 32.1342C55.9929 45.3965 45.2729 56.0141 31.9011 56C18.653 55.9858 7.98589 45.167 8.00001 31.7599C8.01767 18.6706 18.7977 7.99647 31.9965 8ZM15.2279 33.7302C14.2851 33.7302 13.3388 33.769 12.3996 33.7196C11.6228 33.6807 11.4215 33.9809 11.5204 34.7188C11.9865 38.1968 13.2647 41.3359 15.3197 44.1712C15.5563 44.4996 15.7787 44.7256 16.2519 44.5314C17.4383 44.0476 18.6388 43.5992 19.8429 43.1614C20.3902 42.9636 20.482 42.6459 20.3407 42.1091C19.6946 39.6587 19.3733 37.1517 19.1685 34.6341C19.112 33.9526 18.8154 33.7125 18.1692 33.7266C17.1911 33.7478 16.2095 33.7302 15.2279 33.7302ZM52.5361 34.3128C52.6456 33.8573 52.2713 33.716 51.671 33.7231C49.7467 33.7408 47.8223 33.7443 45.8979 33.7231C45.2093 33.716 44.881 33.9385 44.828 34.68C44.6515 37.1658 44.3054 39.6304 43.6734 42.0421C43.4968 42.7094 43.6875 43.0025 44.3089 43.2179C45.4495 43.6098 46.5723 44.0512 47.6881 44.5067C48.1189 44.6832 48.3802 44.5844 48.645 44.2242C50.7671 41.3359 52.0383 38.1121 52.5361 34.3128ZM48.6485 30.2592V30.2628C49.5171 30.2628 50.3858 30.2133 51.2508 30.2769C52.2748 30.3475 52.6067 29.9344 52.4478 28.9457C51.9217 25.6054 50.6682 22.5688 48.6838 19.8323C48.4508 19.511 48.2389 19.2603 47.7587 19.458C46.5723 19.9417 45.3718 20.3866 44.1677 20.8315C43.7122 21.001 43.4898 21.2376 43.6275 21.7637C44.2878 24.2884 44.6444 26.8624 44.8457 29.4612C44.888 30.0297 45.1529 30.2663 45.7037 30.2628C46.6888 30.2557 47.6704 30.2592 48.6485 30.2592ZM15.3338 30.2628C16.3154 30.2628 17.2935 30.2557 18.2751 30.2663C18.8118 30.2698 19.1049 30.0721 19.1579 29.4895C19.3909 26.9013 19.6769 24.3166 20.2278 21.7708C20.3514 21.1917 20.143 20.8563 19.571 20.6621C18.5011 20.3019 17.4383 19.9135 16.3896 19.4898C15.9164 19.2991 15.6269 19.4015 15.3409 19.8005C13.2929 22.6429 12.1171 25.8314 11.5592 29.267C11.4357 30.0191 11.7887 30.291 12.5091 30.2733C13.4483 30.2451 14.3911 30.2628 15.3338 30.2628ZM30.2663 26.4211C30.2663 25.443 30.2557 24.4614 30.2698 23.4833C30.2804 22.8513 30.0262 22.4699 29.3624 22.4558C27.7381 22.4205 26.1386 22.1768 24.5391 21.9332C24.0483 21.859 23.7234 21.9544 23.6175 22.477C23.1691 24.7297 22.7489 26.9825 22.6359 29.2847C22.597 30.0403 22.9395 30.2769 23.6422 30.2698C25.5242 30.2486 27.4062 30.2451 29.2918 30.2698C30.0333 30.2804 30.2945 29.9485 30.2769 29.2423C30.2486 28.3031 30.2698 27.3638 30.2663 26.4211ZM33.7372 37.5824C33.7372 38.5252 33.7549 39.4715 33.7302 40.4143C33.7125 41.0993 33.9809 41.4736 34.6871 41.5442C36.3007 41.7066 37.9144 41.8726 39.5245 42.0774C40.0612 42.1445 40.3013 41.9467 40.4002 41.4594C40.8415 39.2385 41.2511 37.0104 41.3677 34.7435C41.4065 34.0091 41.117 33.7196 40.386 33.7266C38.497 33.7478 36.6079 33.7513 34.7188 33.7266C33.9809 33.716 33.7055 34.0409 33.7266 34.7506C33.7584 35.6934 33.7372 36.6361 33.7372 37.5824ZM37.5154 30.2628C38.4581 30.2628 39.4009 30.2345 40.3437 30.2698C41.1381 30.3016 41.4136 29.9556 41.3712 29.1858C41.2441 26.9578 40.8486 24.7756 40.4178 22.5935C40.2907 21.9579 39.9518 21.8485 39.3621 21.9403C37.7979 22.1804 36.2301 22.3958 34.6588 22.5617C34.0021 22.6323 33.7267 22.9007 33.7337 23.5574C33.7514 25.4818 33.7514 27.4027 33.7337 29.327C33.7267 30.005 34.0232 30.2804 34.6871 30.2663C35.6298 30.2451 36.5726 30.2628 37.5154 30.2628ZM30.2663 37.6072C30.2663 36.6256 30.2522 35.6475 30.2698 34.6659C30.284 33.9879 29.9768 33.7231 29.3129 33.7266C27.4274 33.7443 25.5419 33.7513 23.6563 33.7196C22.8583 33.7054 22.59 34.0409 22.6359 34.8071C22.7665 37.0351 23.169 39.2173 23.5857 41.3994C23.7093 42.0385 24.0589 42.1374 24.6415 42.0491C26.2057 41.809 27.7734 41.5936 29.3447 41.4277C30.0015 41.357 30.284 41.0887 30.2663 40.4284C30.2486 39.4927 30.2663 38.5499 30.2663 37.6072ZM30.2698 15.4539C30.2698 14.5499 30.2486 13.646 30.2769 12.7421C30.3051 11.8947 29.9909 11.824 29.3694 12.276C27.4486 13.6813 26.2657 15.6234 25.3335 17.7561C25.0828 18.3281 25.3018 18.6 25.8914 18.6706C27.0107 18.8083 28.1301 18.9601 29.2494 19.1049C29.9626 19.1967 30.3016 18.9107 30.2769 18.1621C30.2451 17.2617 30.2698 16.3578 30.2698 15.4539ZM33.7337 48.5037C33.7337 49.4077 33.7514 50.3116 33.7266 51.2155C33.709 51.9429 33.8785 52.2607 34.5988 51.7381C36.5585 50.3186 37.7625 48.3448 38.6912 46.1662C38.8783 45.7249 38.7548 45.4177 38.2569 45.3506C37.0634 45.1846 35.8699 45.0363 34.6765 44.8845C33.9985 44.7997 33.7125 45.114 33.7266 45.7919C33.7549 46.6959 33.7372 47.5998 33.7337 48.5037ZM33.7372 15.3338C33.7372 16.3154 33.7443 17.297 33.7337 18.2786C33.7302 18.8365 33.942 19.1437 34.5458 19.0696C35.7428 18.9248 36.9434 18.7942 38.1404 18.6423C38.5676 18.5894 38.9101 18.3881 38.7053 17.8938C37.7731 15.6269 36.5302 13.5789 34.4505 12.163C33.882 11.7746 33.7267 12.0606 33.7302 12.6114C33.7408 13.5224 33.7372 14.4299 33.7372 15.3338ZM30.2698 48.5002C30.2663 48.5002 30.2663 48.5002 30.2628 48.5002C30.2628 47.5574 30.2592 46.6111 30.2628 45.6684C30.2663 45.1634 30.065 44.8633 29.5213 44.9233C28.2854 45.061 27.046 45.2023 25.8137 45.3612C25.3653 45.4177 25.104 45.6719 25.3053 46.145C26.2445 48.366 27.4627 50.3822 29.493 51.7946C30.1039 52.2183 30.2804 51.9605 30.2698 51.332C30.2628 50.3893 30.2698 49.443 30.2698 48.5002ZM40.0436 13.1517C40.6085 14.2074 41.1028 15.0867 41.5583 15.9835C42.5753 17.982 42.5682 17.9856 44.6303 17.0781C44.7327 17.0322 44.8351 16.9828 44.941 16.9404C45.4848 16.7356 45.566 16.5167 45.0646 16.1071C43.5992 14.9136 42.0138 13.9285 40.0436 13.1517ZM23.9706 50.8518C23.395 49.7819 22.9007 48.9027 22.4417 48.0059C21.4283 46.0109 21.4353 46.0073 19.3733 46.9113C19.2709 46.9572 19.1685 47.0066 19.0625 47.049C18.5117 47.2538 18.4517 47.4762 18.9425 47.8823C20.4043 49.0934 22.0074 50.0468 23.9706 50.8518ZM23.7658 13.127C22.3569 13.7131 21.1741 14.3416 20.1077 15.1573C19.5569 15.5775 18.5329 15.9765 18.6777 16.5626C18.8401 17.2229 19.9312 17.184 20.6338 17.4136C21.0858 17.5619 21.5342 17.6219 21.799 17.0922C22.424 15.8317 23.049 14.5676 23.7658 13.127ZM40.2483 50.8624C41.636 50.2833 42.7624 49.676 43.8182 48.9451C44.3972 48.5461 45.4212 48.1612 45.3329 47.5786C45.227 46.876 44.1183 46.9113 43.4474 46.6182C42.8295 46.3498 42.3916 46.4558 42.0844 47.1302C41.5371 48.3307 40.9263 49.4959 40.2483 50.8624Z" fill="#49A49C"/>
</svg>
