<svg viewBox="0 0 100 100" fill="none" xmlns="http://www.w3.org/2000/svg">
<path d="M54 36C54 37.1046 53.1046 38 52 38H48C46.8954 38 46 37.1046 46 36V32C46 30.8954 46.8954 30 48 30H52C53.1046 30 54 30.8954 54 32V36ZM54 68C54 69.1046 53.1046 70 52 70H48C46.8954 70 46 69.1046 46 68V48C46 46.8954 46.8954 46 48 46H52C53.1046 46 54 46.8954 54 48V68ZM50 10C44.7471 10 39.5457 11.0346 34.6927 13.0448C29.8396 15.055 25.4301 18.0014 21.7157 21.7157C14.2143 29.2172 10 39.3913 10 50C10 60.6087 14.2143 70.7828 21.7157 78.2843C25.4301 81.9986 29.8396 84.945 34.6927 86.9552C39.5457 88.9654 44.7471 90 50 90C60.6087 90 70.7828 85.7857 78.2843 78.2843C85.7857 70.7828 90 60.6087 90 50C90 44.7471 88.9654 39.5457 86.9552 34.6927C84.945 29.8396 81.9986 25.4301 78.2843 21.7157C74.5699 18.0014 70.1604 15.055 65.3073 13.0448C60.4543 11.0346 55.2529 10 50 10Z" fill="#49A49C"/>
</svg>
