<svg viewBox="0 0 469 469" fill="none" xmlns="http://www.w3.org/2000/svg">
<g clip-path="url(#clip0)">
<path d="M337.335 0H95.219C84.874 0 76.488 8.386 76.488 18.732V449.561C76.488 459.906 84.874 468.293 95.22 468.293H401.17C411.515 468.293 419.902 459.907 419.902 449.561V82.567L337.335 0Z" fill="#E1E6E9"/>
<path d="M419.902 258.067H48.39V386.367H419.902V258.067Z" fill="#06B036"/>
<path d="M48.39 386.364L76.488 412.491V386.364H48.39Z" fill="#06982F"/>
<path d="M337.336 82.567H419.902L337.335 0L337.336 82.567Z" fill="#EBF0F3"/>
<path d="M353.221 82.567L419.902 121.255V82.567H353.221Z" fill="#D5D6DB"/>
<path d="M145.793 282.455H126.962L151.085 321.727L126.502 361H145.524L161.632 334.192H162.246L178.354 361H197.453L172.946 321.727L196.916 282.455H178.162L162.246 309.224H161.632L145.793 282.455ZM213.905 361H264.185V347.308H230.511V282.455H213.905V361ZM324.272 305.044H340.188C339.958 291.045 328.452 281.381 310.963 281.381C293.743 281.381 281.125 290.892 281.202 305.159C281.164 316.741 289.333 323.376 302.603 326.56L311.155 328.707C319.708 330.778 324.463 333.233 324.502 338.526C324.463 344.278 319.017 348.19 310.58 348.19C301.951 348.19 295.737 344.202 295.201 336.339H279.131C279.553 353.33 291.71 362.112 310.772 362.112C329.948 362.112 341.223 352.946 341.262 338.564C341.223 325.486 331.367 318.544 317.713 315.476L310.657 313.788C303.83 312.216 298.115 309.685 298.23 304.047C298.23 298.984 302.718 295.264 310.848 295.264C318.787 295.264 323.658 298.869 324.272 305.044Z" fill="#EBF0F3"/>
</g>
<defs>
<clipPath id="clip0">
<rect width="468.293" height="468.293" fill="white"/>
</clipPath>
</defs>
</svg>
