<svg viewBox="0 0 19 19" fill="none" xmlns="http://www.w3.org/2000/svg">
<path fill-rule="evenodd" clip-rule="evenodd" d="M9.50793 15.8662H5.3882C4.79367 15.8662 4.369 15.7374 4.11513 15.4789C3.86033 15.2204 3.7334 14.8088 3.7334 14.2441V4.42169C3.7334 3.84583 3.86407 3.43049 4.12447 3.17849C4.38487 2.92649 4.8058 2.79956 5.3882 2.79956H9.7562C10.4002 2.79956 10.9583 2.83783 11.4297 2.91529C11.9019 2.99276 12.3257 3.14116 12.699 3.36143C13.0173 3.54529 13.3001 3.77863 13.5446 4.06143C14.0335 4.61967 14.3017 5.33724 14.2987 6.07929C14.2987 7.38689 13.6249 8.34356 12.2762 8.94929C14.0467 9.49623 14.9334 10.5602 14.9334 12.1422C14.9498 13.5665 14.1028 14.8591 12.7905 15.4126C12.3356 15.5902 11.8597 15.7084 11.3746 15.7645C10.8417 15.8326 10.2191 15.8672 9.50793 15.8672V15.8662ZM9.3054 10.0637H6.5334V13.8782H9.3978C11.243 13.8782 12.1651 13.2342 12.1651 11.9444C12.1651 11.2845 11.9262 10.8057 11.4483 10.5098C10.9705 10.2121 10.2565 10.0637 9.3054 10.0637V10.0637ZM6.5334 4.78756V8.16529H8.96566C9.64606 8.16529 10.1715 8.10276 10.543 7.97863C10.9073 7.85854 11.2114 7.60288 11.3923 7.26463C11.5463 7.01543 11.6229 6.73636 11.6229 6.42743C11.6229 5.76756 11.3802 5.32983 10.8967 5.11236C10.4123 4.89583 9.67406 4.78756 8.68006 4.78756H6.5334V4.78756Z" fill="#394C4A"/>
</svg>
