<svg viewBox="0 0 17 16" fill="none" xmlns="http://www.w3.org/2000/svg">
<path fill-rule="evenodd" clip-rule="evenodd" d="M10.0354 2.45438C11.82 3.01922 13.2378 4.46453 13.792 6.28364C13.9468 6.80695 14.4113 7.17243 14.9409 7.17243H14.9735C15.7884 7.17243 16.3751 6.37501 16.1388 5.5859C15.3484 2.94446 13.303 0.859547 10.7117 0.0538244C9.94574 -0.187062 9.16345 0.411001 9.16345 1.24164V1.27487C9.16345 1.82309 9.522 2.29656 10.0354 2.45438ZM13.7918 9.72251C13.2377 11.5499 11.8198 12.9869 10.0352 13.5518C9.52188 13.7096 9.16333 14.1831 9.16333 14.723V14.7562C9.16333 15.5868 9.94561 16.1849 10.7197 15.944C13.3111 15.1383 15.3564 13.0534 16.1468 10.4119C16.3832 9.62283 15.7964 8.82541 14.9897 8.82541H14.949C14.4111 8.83372 13.9467 9.1992 13.7918 9.72251ZM6.64564 13.5435C7.16716 13.7096 7.53386 14.1831 7.53386 14.7396C7.53386 15.5785 6.74342 16.1932 5.96114 15.944C2.62829 14.9057 0.199951 11.741 0.199951 8.00308C0.199951 4.26519 2.62829 1.10044 5.96114 0.0621366C6.74342 -0.187056 7.53386 0.427619 7.53386 1.25826V1.26657C7.53386 1.8231 7.16716 2.29656 6.64564 2.46269C4.33138 3.20196 2.64459 5.40317 2.64459 8.00308C2.64459 10.603 4.33138 12.8042 6.64564 13.5435Z" fill="black"/>
</svg>
