<svg viewBox="0 0 64 64" fill="none" xmlns="http://www.w3.org/2000/svg">
<path fill-rule="evenodd" clip-rule="evenodd" d="M27.5029 46.1044C28.7401 46.1042 29.9773 46.104 31.2145 46.104C32.4508 46.104 33.687 46.1044 34.9233 46.1048H34.9273C36.2829 46.1053 37.6386 46.1057 38.9942 46.1056C38.8151 46.6622 38.4676 47.1551 37.9564 47.5827C37.2803 48.1483 37.1982 48.7075 37.7258 49.4088C38.484 50.4135 38.6073 51.5003 38.1176 52.6534C37.8174 53.3548 38.0291 53.9424 38.7273 54.2552C39.4476 54.5774 40.0131 55.0577 40.3638 55.7748C40.5471 56.1508 40.6482 56.5457 40.6829 56.9659C40.7461 57.7273 41.2706 58.1633 41.9814 58.0938C43.2388 57.9705 44.2245 58.4539 44.929 59.487C45.4156 60.1947 46.0222 60.3463 46.7362 59.8851C47.684 59.2722 48.6286 59.2437 49.5953 59.8535C50.401 60.3621 50.9065 60.2421 51.4562 59.4586C51.9332 58.7793 52.5714 58.3275 53.3865 58.1411C53.7561 58.0558 54.129 58.0306 54.4607 58.1064C55.1652 58.1127 55.6391 57.6894 55.6928 56.988C55.7971 55.7085 56.4384 54.8176 57.5947 54.2742C58.394 53.8982 58.5646 53.3864 58.2234 52.5744C57.8633 51.7183 57.8632 50.8558 58.274 50.0091C58.4256 49.6932 58.612 49.412 58.8616 49.1592C59.1365 48.8812 58.9753 48.025 58.612 47.7439C57.5031 46.8877 57.0482 45.7882 57.3167 44.3981C57.4241 43.8453 57.0734 43.3177 56.53 43.1629C56.4563 43.1423 56.3808 43.1273 56.3054 43.1124C56.2418 43.0997 56.1783 43.0871 56.1162 43.0712C54.9346 42.7743 54.1479 42.0539 53.7846 40.8882C53.5887 40.2626 52.9663 39.9119 52.3439 40.1204C52.0268 40.2267 51.7195 40.2918 51.4218 40.3155C51.4266 39.7668 51.424 39.2176 51.4214 38.6687V38.6684C51.4198 38.3434 51.4183 38.0185 51.4183 37.694C51.4183 35.836 51.4185 33.9781 51.4187 32.1202L51.4187 32.013C51.4193 26.3275 51.4199 20.6419 51.4151 14.9564C51.412 13.3072 51.1087 13.0071 49.4943 13.004C47.6174 12.9992 45.7387 12.9998 43.8596 13.0004C43.2336 13.0006 42.6075 13.0008 41.9814 13.0008C34.7624 13.0008 27.5402 13.0008 20.318 13.004C19.0417 13.004 18.672 13.3546 18.6404 14.5994L18.6351 14.8104C18.6168 15.5214 18.5984 16.2359 18.6847 16.9373C18.7794 17.7082 18.4825 17.9356 17.7779 17.9198C16.7069 17.8977 15.6328 17.904 14.5586 17.9198C12.246 17.9546 11.0107 19.1867 11.0075 21.512C10.9981 27.9191 10.9949 34.3293 11.0139 40.7364C11.0233 44.0442 13.099 46.0977 16.3815 46.1009C20.0886 46.1056 23.7958 46.105 27.5029 46.1044ZM38.5536 43.8704L39.1034 43.8706C39.2191 43.4831 39.536 43.2252 40.0447 43.1281C41.1505 42.9164 41.9466 42.3162 42.4427 41.3115C42.4995 41.1979 42.5358 41.0766 42.5725 40.9546L42.5725 40.9545L42.5848 40.9134C42.8091 40.2279 43.3936 39.9119 44.0697 40.1426C44.7837 40.3858 45.4882 40.389 46.1991 40.152C46.4918 40.0544 46.752 39.9062 46.9931 39.7275C45.7606 39.8289 44.5281 39.8067 43.2955 39.7845C42.986 39.7789 42.6764 39.7733 42.3668 39.7697C41.8708 39.7634 41.3116 39.6591 41.3116 39.0146C41.3148 38.3291 41.8708 38.2248 42.4237 38.2185C42.9785 38.2117 43.535 38.213 44.0907 38.2143H44.0908H44.0908H44.0909H44.091H44.091H44.0911H44.0912H44.0912H44.0917C44.3141 38.2148 44.5364 38.2153 44.7584 38.2153L44.7585 38.2153C44.7616 38.2185 44.7616 38.2185 44.7616 38.2216C45.0053 38.2216 45.2487 38.2208 45.4919 38.2199C46.0593 38.2179 46.626 38.216 47.1943 38.2248C47.6966 38.2343 48.12 38.3986 48.101 38.9957C48.1005 39.0104 48.0997 39.0248 48.0986 39.039C48.3974 39.0098 48.6998 39.1204 48.9635 39.3717C49.0368 39.4419 49.1109 39.5082 49.1859 39.5707C49.1859 39.2325 49.1796 38.8942 49.1657 38.5565C49.0662 36.1451 49.1016 33.7347 49.137 31.3237V31.3235V31.3234V31.3232V31.3231V31.323V31.3228V31.3227V31.3226V31.3224V31.3223V31.3222V31.322C49.1646 29.447 49.1921 27.5716 49.1562 25.6949C49.1271 24.1999 49.1336 22.7042 49.1402 21.2081C49.1471 19.6184 49.1541 18.0283 49.1183 16.4381C49.0962 15.4966 48.7929 15.2123 47.8672 15.2218C44.5886 15.2534 41.3101 15.2476 38.0316 15.2418C37.0482 15.2401 36.0648 15.2383 35.0815 15.2376H22.3937C20.9625 15.2376 20.9594 15.2407 20.9594 16.713C20.9594 19.3031 20.959 21.8933 20.9587 24.4836V24.4839V24.4843V24.4846V24.485V24.4853V24.4857V24.486V24.4864V24.4868V24.4871V24.4875V24.4878V24.4927C20.958 29.6748 20.9573 34.8574 20.9594 40.0413C20.9594 40.9891 20.9151 41.9274 20.6055 42.8342L20.6046 42.8369C20.2517 43.8641 20.2495 43.8704 21.3764 43.8704C25.193 43.8725 29.0109 43.8718 32.8284 43.8711H32.8288H32.8291H32.8295H32.8298H32.8302H32.8305H32.8309H32.8313H32.8316H32.832H32.8323H32.8327C34.7398 43.8708 36.6469 43.8704 38.5536 43.8704ZM42.9671 46.3443C43.0214 46.2345 43.1084 46.157 43.2133 46.1031C44.158 46.1019 45.1027 46.1001 46.0475 46.0977C46.3716 46.0974 46.6844 46.0762 46.9847 46.0351C47.1661 46.0376 47.3476 46.0415 47.5292 46.0473C48.1768 46.0694 48.7518 45.8893 49.3047 45.5892C49.4499 45.5105 49.5947 45.4309 49.7395 45.3513L49.7402 45.351L49.7402 45.3509C49.9732 45.2228 50.2064 45.0946 50.442 44.97C50.5779 44.8973 50.6916 44.8057 50.799 44.6983C51.5952 43.9085 52.6251 43.9938 53.3012 44.891C53.7783 45.526 54.0121 46.259 54.1416 47.0204C54.3849 48.4642 54.3691 49.9048 53.9868 51.3265C53.7625 52.1669 53.4686 52.982 52.8241 53.6107C52.0785 54.3437 51.0739 54.211 50.3946 53.418C49.6996 52.6029 48.8055 52.0437 47.6934 51.9521C47.1311 51.9047 46.5687 51.8984 46.0032 51.8984C45.7789 51.9015 45.6715 51.9584 45.6936 52.2048C45.7092 52.3766 45.7059 52.55 45.7026 52.7227C45.7013 52.7946 45.6999 52.8663 45.6999 52.9378C45.6999 53.2537 45.5672 53.4875 45.2513 53.5728C45.1218 53.6089 45.1301 53.6566 45.1476 53.7567L45.1502 53.7718C45.245 54.3057 45.3334 54.846 45.4124 55.3831C45.463 55.7243 45.4093 55.778 45.0617 55.7811C44.9887 55.7811 44.9159 55.7808 44.8432 55.7804L44.8416 55.7803C44.6224 55.7792 44.4045 55.778 44.1866 55.7875C43.9686 55.7969 43.8865 55.7022 43.858 55.4968C43.7854 54.9755 43.7087 54.455 43.6321 53.9345C43.5555 53.414 43.4789 52.8935 43.4062 52.3722C43.3683 52.11 43.3178 51.8889 43.0398 51.7657C42.866 51.6898 42.7333 51.5319 42.6764 51.3486C42.5943 51.0896 42.4332 50.9316 42.2025 50.7926C41.7982 50.5493 41.5644 50.1639 41.4791 49.6995C41.3401 48.9444 41.4348 48.1988 41.9024 47.6048C42.028 47.4438 42.1735 47.3 42.3197 47.1556C42.5635 46.9147 42.8091 46.6721 42.9671 46.3443ZM14.8623 27.9546V27.9549V27.9552V27.9555V27.9558V27.9561V27.9564V27.9567V27.957V27.9573V27.9576V27.9579V27.9582C14.8621 28.6551 14.8619 29.3519 14.8619 30.0484C14.8632 31.1403 14.8634 32.2322 14.8637 33.3236V33.3237V33.3237V33.3237V33.3238V33.3238V33.3239V33.3239V33.3239V33.324V33.324V33.3241V33.3241C14.864 34.9611 14.8644 36.5972 14.8682 38.231C14.8714 39.8612 15.0767 40.0603 16.7448 40.0571H17.1334C18.6531 40.0571 18.8742 40.3351 18.5646 41.8421C18.334 42.9763 17.3293 43.8041 16.1256 43.8546C14.9567 43.902 13.753 43.0869 13.4465 41.9906C13.3233 41.5578 13.2412 41.0902 13.2601 40.6448C13.3647 38.1364 13.347 35.6293 13.3293 33.1219V33.1219C13.3181 31.5395 13.3069 29.957 13.3265 28.374C13.3415 27.0197 13.3218 25.6642 13.3021 24.309C13.2887 23.3912 13.2753 22.4734 13.2728 21.5562C13.2696 21.2434 13.3517 20.9117 13.4718 20.6179C13.5887 20.3304 13.8762 20.1914 14.1921 20.2261C14.4733 20.2546 14.685 20.4441 14.7513 20.7063C14.8303 21.016 14.8587 21.3445 14.8587 21.6668C14.8635 23.7618 14.8629 25.8587 14.8623 27.9546ZM17.1022 30.8722V30.8719V30.8716V30.8713V30.871V30.8707V30.8704V30.8701V30.8698V30.8695V30.8693V30.869V30.8687C17.102 30.2034 17.1018 29.5382 17.1018 28.8732V28.8691C17.1018 26.2988 17.1018 23.7285 17.0955 21.1613C17.0955 21.1224 17.0951 21.0835 17.0947 21.0449C17.0897 20.5881 17.0851 20.1673 17.7843 20.144C18.5362 20.1187 18.6278 20.5452 18.6278 21.136C18.6215 26.3739 18.6246 31.6118 18.6278 36.8496V36.8504C18.6278 37.3843 18.5678 37.8172 17.8632 37.8298C17.1492 37.8425 17.0987 37.4159 17.0987 36.8757C17.1034 34.8754 17.1028 32.8734 17.1022 30.8722ZM29.5309 36.5382H29.5312H29.5315H29.5318H29.5321H29.5324H29.5327H29.533H29.5333H29.5335H29.5338H29.5341H29.5344C30.1272 36.538 30.7199 36.5378 31.3124 36.5378C32.115 36.5378 32.9176 36.5385 33.7201 36.5392H33.722H33.7224H33.7227H33.7231H33.7235H33.7238H33.7242H33.7245H33.7249H33.7252H33.7256H33.7259C35.3286 36.5406 36.9307 36.542 38.5314 36.5378C39.7699 36.5315 39.9184 36.3799 39.9247 35.113C39.9342 33.4543 39.9342 31.7957 39.9247 30.1371C39.9184 28.9902 39.6878 28.7027 38.5852 28.6996C33.7388 28.6806 28.8956 28.6806 24.0492 28.6964C22.9434 28.6996 22.7001 28.9839 22.6938 30.1213C22.6812 31.7799 22.6843 33.4385 22.6938 35.0972C22.7001 36.3641 22.8771 36.5315 24.1913 36.5347C25.9697 36.5394 27.7499 36.5388 29.5293 36.5382H29.5309ZM31.2745 38.2153C31.8604 38.2153 32.4463 38.2151 33.0321 38.2149H33.034C34.7886 38.2143 36.5431 38.2137 38.2976 38.2185C38.6199 38.2185 38.9516 38.2248 39.2676 38.2911C39.6119 38.3638 39.852 38.6008 39.8647 38.9704C39.8773 39.3432 39.6593 39.5896 39.2991 39.6591C38.9516 39.7286 38.5915 39.7855 38.2376 39.7855C33.5239 39.7918 28.8071 39.7918 24.0934 39.7887C23.8659 39.7887 23.6353 39.7823 23.4141 39.7381C22.9718 39.6496 22.7223 39.3621 22.7602 38.9104C22.7949 38.5028 23.0698 38.2753 23.4742 38.2374C23.6863 38.2167 23.8984 38.2151 24.1122 38.2135L24.1126 38.2135L24.1131 38.2134L24.1135 38.2134L24.114 38.2134L24.1145 38.2134L24.1149 38.2134C24.1614 38.2131 24.2079 38.2127 24.2545 38.2122C26.5924 38.2153 28.9335 38.2153 31.2745 38.2153ZM43.9676 30.256C44.1996 30.2549 44.4317 30.2539 44.6637 30.2539C44.9042 30.2539 45.145 30.2544 45.3858 30.2549H45.3862H45.3865H45.3868H45.3874H45.3875H45.3876H45.3877H45.3878H45.3879H45.388H45.3881H45.3882H45.3883C45.9914 30.2562 46.5952 30.2575 47.1974 30.2507C47.6555 30.2444 48.0662 30.0991 48.0978 29.5652C48.1326 28.9965 47.7503 28.7216 47.2417 28.7153C45.5546 28.6932 43.8644 28.6995 42.1773 28.728C41.735 28.7374 41.3053 28.9302 41.3053 29.4609C41.3053 30.0296 41.7223 30.235 42.2278 30.2476C42.8078 30.2611 43.3877 30.2586 43.9676 30.256ZM43.8847 36.5301H43.885H43.8853H43.8857H43.886H43.8864H43.8867H43.8871H43.8874C44.139 36.5292 44.3904 36.5283 44.6415 36.5283C44.8343 36.529 45.0273 36.53 45.2204 36.5311L45.2219 36.5311C45.9017 36.5346 46.5834 36.5382 47.2669 36.5283C47.7408 36.522 48.1073 36.3135 48.1041 35.7891C48.1041 35.3152 47.7598 35.1003 47.327 35.0972C45.5799 35.0814 43.8296 35.0814 42.0825 35.0972C41.656 35.1003 41.3021 35.2962 41.2927 35.7796C41.2832 36.3072 41.637 36.5189 42.1173 36.5252C42.7055 36.534 43.2952 36.532 43.8844 36.5301H43.8847ZM44.6226 33.3943C43.8106 33.3943 42.9955 33.3943 42.1836 33.3911C41.7002 33.3879 41.3337 33.1826 41.3053 32.6739C41.2737 32.1211 41.6781 31.9599 42.1457 31.9568C43.8359 31.9473 45.5293 31.9473 47.2195 31.9536C47.6808 31.9568 48.0947 32.1053 48.0978 32.6487C48.101 33.2458 47.6555 33.3879 47.1563 33.3911C46.5562 33.3979 45.9528 33.3966 45.3485 33.3953C45.1066 33.3948 44.8646 33.3943 44.6226 33.3943ZM27.8625 21.1867C27.9541 20.915 27.9983 20.6306 27.9983 20.3336C27.9983 20.0019 27.9509 19.7018 27.8498 19.4396C27.7487 19.1773 27.5971 18.9562 27.3917 18.7761C27.1863 18.596 26.9241 18.457 26.6082 18.3591C26.2891 18.2611 25.9131 18.2137 25.4772 18.2137H23.5911V25.0031H25.0317V22.5894H25.3603C25.8563 22.5894 26.2733 22.5262 26.6082 22.403C26.9431 22.2798 27.2148 22.1155 27.4201 21.907C27.6255 21.6985 27.774 21.4584 27.8625 21.1867ZM25.3161 21.411H25.0349V19.3985H25.4013C25.7931 19.3985 26.0838 19.4775 26.267 19.6386C26.4502 19.7997 26.5418 20.0493 26.5418 20.3874C26.5418 20.7475 26.4376 21.0097 26.2322 21.1709C26.0269 21.332 25.7204 21.411 25.3161 21.411ZM31.8748 19.7174C31.9127 19.7174 31.9538 19.7174 31.998 19.7206C32.0422 19.7206 32.0865 19.7237 32.1275 19.73C32.1686 19.7364 32.2065 19.7395 32.2444 19.7427C32.2553 19.7447 32.2655 19.7463 32.275 19.7479C32.296 19.7513 32.3135 19.7541 32.3265 19.7585V21.0854C32.3013 21.0791 32.2665 21.0727 32.2255 21.0664C32.1812 21.0601 32.137 21.0538 32.0896 21.0506C32.058 21.0464 32.0264 21.045 31.9948 21.0436L31.965 21.0422L31.9474 21.0412C31.9214 21.0412 31.8982 21.0402 31.8774 21.0393H31.8773H31.8773H31.8773H31.8773C31.8602 21.0386 31.8448 21.038 31.8306 21.038C31.6473 21.038 31.4799 21.0601 31.3282 21.1075C31.1766 21.1549 31.0439 21.2307 30.9333 21.3318C30.8227 21.4361 30.7374 21.5719 30.6774 21.7394C30.6174 21.9068 30.5858 22.1153 30.5858 22.3586V24.9998H29.1704V19.8153H30.2446L30.4531 20.5957H30.5194C30.5953 20.463 30.6742 20.343 30.7595 20.2324C30.8448 20.125 30.9428 20.0333 31.0502 19.9575C31.1576 19.8817 31.2777 19.8217 31.4135 19.7806C31.5494 19.7395 31.7042 19.7174 31.8748 19.7174ZM34.5507 24.9366C34.8635 25.044 35.2047 25.0977 35.5775 25.0977C35.7702 25.0977 35.944 25.0914 36.0956 25.0788C36.2567 25.0661 36.4084 25.044 36.5474 25.0124C36.6864 24.9808 36.8191 24.9429 36.9455 24.8987C37.0687 24.8544 37.1951 24.8007 37.3183 24.7344V23.6381C37.1824 23.7076 37.0497 23.7676 36.9202 23.8182C36.7907 23.8687 36.658 23.9098 36.5253 23.9446C36.3926 23.9793 36.2567 24.0046 36.1146 24.0204C35.9724 24.0362 35.8239 24.0457 35.6659 24.0457C35.4795 24.0457 35.3121 24.0172 35.1636 23.9572C35.0151 23.8972 34.8919 23.815 34.7877 23.7045C34.6866 23.5939 34.6044 23.4612 34.5476 23.3001C34.4907 23.1389 34.4591 22.962 34.4528 22.763H37.6184V22.0743C37.6184 21.6983 37.5678 21.3634 37.4636 21.0696C37.3593 20.7789 37.2109 20.5325 37.0181 20.3303C36.8254 20.1281 36.5916 19.9765 36.3136 19.8722C36.0356 19.768 35.726 19.7174 35.3816 19.7174C35.0278 19.7174 34.7087 19.7743 34.418 19.888C34.1305 20.0017 33.8809 20.1723 33.6756 20.3998C33.4702 20.6273 33.3091 20.9116 33.1954 21.2528C33.0816 21.594 33.0248 21.9921 33.0248 22.4471C33.0248 22.8957 33.088 23.2874 33.2143 23.6192C33.3407 23.954 33.5145 24.2289 33.7419 24.4469C33.9694 24.6649 34.2379 24.8292 34.5507 24.9366ZM34.7687 20.9906C34.9362 20.8137 35.1447 20.7252 35.3942 20.7252C35.5427 20.7252 35.6754 20.7537 35.786 20.8105C35.8966 20.8674 35.9882 20.9432 36.064 21.0412C36.1398 21.1359 36.1936 21.2528 36.2315 21.3855C36.2694 21.5182 36.2883 21.6635 36.2915 21.8215H34.4844C34.5065 21.4456 34.6044 21.1675 34.7687 20.9906ZM42.2815 23.4644C42.2815 23.7361 42.231 23.9762 42.1331 24.1784C42.0351 24.3837 41.8929 24.5543 41.7097 24.6902C41.5265 24.826 41.3053 24.9271 41.0463 24.9966C40.7872 25.0661 40.4965 25.0977 40.1743 25.0977C40.0037 25.0977 39.8457 25.0914 39.7004 25.0819C39.5551 25.0725 39.416 25.0535 39.2865 25.0282C39.157 25.0029 39.0306 24.9713 38.9106 24.9366C38.7905 24.8987 38.6673 24.8545 38.5441 24.7976V23.6286C38.6736 23.695 38.8126 23.7519 38.9548 23.8056C39.1001 23.8593 39.2423 23.9035 39.3845 23.9414C39.5266 23.9793 39.6656 24.0109 39.8015 24.033C39.9373 24.0552 40.0605 24.0646 40.1743 24.0646C40.3007 24.0646 40.4081 24.052 40.4997 24.0299C40.5882 24.0078 40.664 23.973 40.7208 23.9319C40.7777 23.8909 40.8188 23.8403 40.8472 23.7834C40.8725 23.7266 40.8851 23.6666 40.8851 23.6002C40.8851 23.5339 40.8757 23.477 40.8535 23.4264C40.8346 23.3759 40.7872 23.3222 40.7177 23.2653C40.645 23.2085 40.5408 23.1421 40.4049 23.0695C40.2659 22.9968 40.0827 22.9083 39.8489 22.8041C39.6214 22.703 39.4287 22.6019 39.2612 22.5008C39.097 22.3997 38.958 22.2891 38.8537 22.1627C38.7463 22.0395 38.6673 21.8973 38.6136 21.7394C38.5599 21.5814 38.5346 21.3887 38.5346 21.1707C38.5346 20.9306 38.582 20.7189 38.6736 20.5357C38.7652 20.3556 38.8979 20.204 39.0685 20.0839C39.2391 19.9638 39.4445 19.8722 39.6846 19.8122C39.9247 19.7522 40.1901 19.7206 40.4871 19.7206C40.7967 19.7206 41.0905 19.7553 41.3685 19.828C41.6465 19.9007 41.934 20.0049 42.2278 20.1471L41.8013 21.1486C41.5675 21.038 41.3401 20.9464 41.1284 20.8737C40.9136 20.8011 40.7019 20.7663 40.4871 20.7663C40.2943 20.7663 40.1553 20.8011 40.07 20.8674C39.9847 20.9369 39.9437 21.0285 39.9437 21.1454C39.9437 21.2086 39.9531 21.2623 39.9752 21.3097C39.9974 21.3571 40.0416 21.4077 40.1048 21.4582C40.1711 21.5088 40.2596 21.5656 40.3796 21.6256C40.4965 21.6857 40.6513 21.7583 40.8409 21.8468C41.062 21.9416 41.2579 22.0395 41.4348 22.1311C41.6118 22.2259 41.7634 22.3333 41.8898 22.4534C42.0162 22.5734 42.1141 22.7156 42.1836 22.8767C42.2531 23.0379 42.2815 23.2337 42.2815 23.4644ZM46.7077 24.1784C46.8057 23.9762 46.8562 23.7361 46.8562 23.4644C46.8562 23.2337 46.8278 23.0379 46.7583 22.8767C46.6888 22.7156 46.5908 22.5734 46.4645 22.4534C46.3381 22.3333 46.1865 22.2259 46.0095 22.1311C45.8326 22.0395 45.6367 21.9416 45.4156 21.8468C45.226 21.7583 45.0712 21.6857 44.9543 21.6256C44.8343 21.5656 44.7426 21.5088 44.6795 21.4582C44.6163 21.4077 44.572 21.3571 44.5499 21.3097C44.5278 21.2623 44.5183 21.2086 44.5183 21.1454C44.5183 21.0285 44.5594 20.9369 44.6447 20.8674C44.73 20.8011 44.869 20.7663 45.0617 20.7663C45.2766 20.7663 45.4882 20.8011 45.7031 20.8737C45.9147 20.9464 46.1422 21.038 46.376 21.1486L46.8025 20.1471C46.5087 20.0049 46.2212 19.9007 45.9432 19.828C45.6652 19.7553 45.3714 19.7206 45.0617 19.7206C44.7648 19.7206 44.4994 19.7522 44.2593 19.8122C44.0192 19.8722 43.8138 19.9638 43.6432 20.0839C43.4726 20.204 43.3399 20.3556 43.2483 20.5357C43.1567 20.7189 43.1093 20.9306 43.1093 21.1707C43.1093 21.3887 43.1346 21.5814 43.1883 21.7394C43.242 21.8973 43.321 22.0395 43.4284 22.1627C43.5326 22.2891 43.6716 22.3997 43.8359 22.5008C44.0034 22.6019 44.1961 22.703 44.4236 22.8041C44.6573 22.9083 44.8406 22.9968 44.9796 23.0695C45.1155 23.1421 45.2197 23.2085 45.2924 23.2653C45.3619 23.3222 45.4093 23.3759 45.4282 23.4264C45.4503 23.477 45.4598 23.5339 45.4598 23.6002C45.4598 23.6666 45.4472 23.7266 45.4219 23.7834C45.3935 23.8403 45.3524 23.8909 45.2955 23.9319C45.2387 23.973 45.1628 24.0078 45.0744 24.0299C44.9828 24.052 44.8753 24.0646 44.749 24.0646C44.6352 24.0646 44.512 24.0552 44.3762 24.033C44.2403 24.0109 44.1013 23.9793 43.9591 23.9414C43.817 23.9035 43.6748 23.8593 43.5295 23.8056C43.3873 23.7519 43.2483 23.695 43.1188 23.6286V24.7976C43.242 24.8545 43.3652 24.8987 43.4852 24.9366C43.6053 24.9713 43.7317 25.0029 43.8612 25.0282C43.9907 25.0535 44.1297 25.0725 44.2751 25.0819C44.4204 25.0914 44.5784 25.0977 44.749 25.0977C45.0712 25.0977 45.3619 25.0661 45.6209 24.9966C45.88 24.9271 46.1012 24.826 46.2844 24.6902C46.4676 24.5543 46.6098 24.3837 46.7077 24.1784ZM51.2034 46.0915C50.6663 47.1404 50.5589 48.2777 50.5021 49.3487C50.5242 50.3945 50.6284 51.3454 51.0202 52.2395C51.1087 52.4385 51.2098 52.6313 51.3677 52.7829C51.611 53.0167 51.7848 53.0167 52.028 52.7892C52.2744 52.5618 52.4419 52.2774 52.5651 51.971C53.238 50.2839 53.3265 48.5526 52.9126 46.796C52.802 46.3284 52.6536 45.8672 52.3187 45.5007C52.0849 45.2448 51.8922 45.2385 51.6394 45.4723C51.4499 45.646 51.3203 45.864 51.2034 46.0915Z" fill="#49A49C"/>
</svg>
