<svg width="20" height="20" viewBox="0 0 20 20" fill="none" xmlns="http://www.w3.org/2000/svg">
<path fill-rule="evenodd" clip-rule="evenodd" d="M16.5146 3.46631C17.0746 3.46631 17.532 3.90498 17.532 4.44631V15.497C17.532 16.0476 17.0746 16.4863 16.5146 16.4863H3.08398C2.52398 16.4863 2.06665 16.0476 2.06665 15.497V4.44631C2.06665 3.90498 2.52398 3.46631 3.09332 3.46631H16.5146ZM6.92932 10.4756C7.17198 10.261 7.52665 10.2796 7.75065 10.5036L10.8866 13.4343L12.968 11.5116C13.197 11.2994 13.5509 11.2994 13.78 11.5116L16.132 14.2836V4.83831H3.46665V14.2836L6.92932 10.4756ZM11.6439 6.82421C11.3163 7.39064 11.3159 8.08878 11.6427 8.65564C12.1478 9.53193 13.2677 9.8328 14.144 9.32764C15.0203 8.82248 15.3211 7.7026 14.816 6.82631C14.4892 6.25945 13.8848 5.90998 13.2305 5.90955C12.5762 5.90912 11.9714 6.25778 11.6439 6.82421Z" fill="#394C4A"/>
<mask id="mask0" mask-type="alpha" maskUnits="userSpaceOnUse" x="2" y="3" width="16" height="14">
<path fill-rule="evenodd" clip-rule="evenodd" d="M16.5146 3.46631C17.0746 3.46631 17.532 3.90498 17.532 4.44631V15.497C17.532 16.0476 17.0746 16.4863 16.5146 16.4863H3.08398C2.52398 16.4863 2.06665 16.0476 2.06665 15.497V4.44631C2.06665 3.90498 2.52398 3.46631 3.09332 3.46631H16.5146ZM6.92932 10.4756C7.17198 10.261 7.52665 10.2796 7.75065 10.5036L10.8866 13.4343L12.968 11.5116C13.197 11.2994 13.5509 11.2994 13.78 11.5116L16.132 14.2836V4.83831H3.46665V14.2836L6.92932 10.4756ZM11.6439 6.82421C11.3163 7.39064 11.3159 8.08878 11.6427 8.65564C12.1478 9.53193 13.2677 9.8328 14.144 9.32764C15.0203 8.82248 15.3211 7.7026 14.816 6.82631C14.4892 6.25945 13.8848 5.90998 13.2305 5.90955C12.5762 5.90912 11.9714 6.25778 11.6439 6.82421Z" fill="white"/>
</mask>
<g mask="url(#mask0)">
<rect x="0.666656" y="0.666504" width="18.6667" height="18.6667" fill="#394C4A"/>
</g>
</svg>
