<svg viewBox="0 0 60 58" fill="none" xmlns="http://www.w3.org/2000/svg">
<path d="M26.1956 3.7082C27.393 0.0229568 32.6066 0.0229588 33.804 3.7082L38.0823 16.8754C38.6178 18.5235 40.1536 19.6393 41.8865 19.6393H55.7313C59.6062 19.6393 61.2173 24.5978 58.0825 26.8754L46.8818 35.0132C45.4799 36.0317 44.8932 37.8372 45.4287 39.4853L49.707 52.6525C50.9044 56.3377 46.6865 59.4022 43.5516 57.1246L32.351 48.9868C30.949 47.9683 29.0506 47.9683 27.6487 48.9868L16.448 57.1246C13.3131 59.4022 9.09522 56.3377 10.2926 52.6525L14.5709 39.4853C15.1064 37.8372 14.5198 36.0317 13.1178 35.0132L1.91715 26.8754C-1.21771 24.5978 0.393396 19.6393 4.26829 19.6393H18.1131C19.846 19.6393 21.3818 18.5235 21.9173 16.8754L26.1956 3.7082Z" fill="currentColor"/>
</svg>
