<svg viewBox="0 0 28 28" fill="none" xmlns="http://www.w3.org/2000/svg">
<path d="M20.5858 10.3242C21.3668 9.54316 21.3668 8.27683 20.5858 7.49579L20.5042 7.41421C19.7232 6.63316 18.4568 6.63316 17.6758 7.41421L14 11.09L10.3242 7.41421C9.54316 6.63316 8.27683 6.63317 7.49579 7.41421L7.41421 7.49579C6.63316 8.27684 6.63316 9.54316 7.41421 10.3242L11.09 14L7.41421 17.6758C6.63316 18.4568 6.63317 19.7232 7.41421 20.5042L7.49579 20.5858C8.27684 21.3668 9.54316 21.3668 10.3242 20.5858L14 16.91L17.6758 20.5858C18.4568 21.3668 19.7232 21.3668 20.5042 20.5858L20.5858 20.5042C21.3668 19.7232 21.3668 18.4568 20.5858 17.6758L16.91 14L20.5858 10.3242Z" fill="#EB5757"/>
</svg>
