<svg viewBox="0 0 469 469" fill="none" xmlns="http://www.w3.org/2000/svg">
<g clip-path="url(#clip0)">
<path d="M337.335 0H95.219C84.874 0 76.488 8.386 76.488 18.732V449.561C76.488 459.906 84.874 468.293 95.22 468.293H401.17C411.515 468.293 419.902 459.907 419.902 449.561V82.567L337.335 0Z" fill="#E1E6E9"/>
<path d="M419.902 258.067H48.39V386.367H419.902V258.067Z" fill="#27A2DB"/>
<path d="M48.39 386.364L76.488 412.491V386.364H48.39Z" fill="#2D93BA"/>
<path d="M337.336 82.567H419.902L337.335 0L337.336 82.567Z" fill="#EBF0F3"/>
<path d="M353.221 82.567L419.902 121.255V82.567H353.221Z" fill="#D5D6DB"/>
<path d="M140.058 361C163.989 361 178.487 346.196 178.487 321.651C178.487 297.182 163.989 282.455 140.288 282.455H112.214V361H140.058ZM128.82 346.771V296.683H139.406C154.133 296.683 161.918 304.2 161.918 321.651C161.918 339.178 154.133 346.771 139.367 346.771H128.82ZM269.447 321.727C269.447 296.031 253.493 281.381 232.667 281.381C211.727 281.381 195.887 296.031 195.887 321.727C195.887 347.308 211.727 362.074 232.667 362.074C253.493 362.074 269.447 347.423 269.447 321.727ZM252.61 321.727C252.61 338.372 244.71 347.385 232.667 347.385C220.586 347.385 212.724 338.372 212.724 321.727C212.724 305.082 220.586 296.07 232.667 296.07C244.71 296.07 252.61 305.082 252.61 321.727ZM357.531 309.953C355.345 291.812 341.615 281.381 323.436 281.381C302.687 281.381 286.848 296.031 286.848 321.727C286.848 347.347 302.419 362.074 323.436 362.074C343.571 362.074 355.729 348.689 357.531 334.23L340.733 334.153C339.16 342.553 332.564 347.385 323.704 347.385C311.777 347.385 303.685 338.526 303.685 321.727C303.685 305.389 311.662 296.07 323.82 296.07C332.909 296.07 339.467 301.324 340.733 309.953H357.531Z" fill="#EBF0F3"/>
</g>
<defs>
<clipPath id="clip0">
<rect width="468.293" height="468.293" fill="white"/>
</clipPath>
</defs>
</svg>
