<svg viewBox="0 0 64 64" fill="none" xmlns="http://www.w3.org/2000/svg">
<path fill-rule="evenodd" clip-rule="evenodd" d="M42.1565 22.0119H56.2437C56.315 22.0119 56.3873 22.0089 56.4598 22.006C56.6517 21.9981 56.8444 21.9902 57.0219 22.0373C57.2507 22.0994 57.6109 22.2573 57.6293 22.4097C57.6608 22.6664 57.5346 23.0529 57.348 23.2052C56.925 23.5541 56.4475 23.8322 55.9747 24.1077L55.8677 24.17C54.0713 25.2206 52.2732 26.2688 50.475 27.317C48.3571 28.5517 46.239 29.7864 44.1232 31.0253C42.8217 31.787 41.5387 31.8011 40.2346 31.0394C37.8624 29.6509 35.4878 28.2651 33.1125 26.879L33.1107 26.878L33.1072 26.8759L33.1047 26.8744L33.1006 26.872C31.286 25.8131 29.471 24.754 27.6566 23.6933C27.609 23.6654 27.559 23.6388 27.5087 23.612C27.3452 23.5248 27.1781 23.4357 27.0755 23.2955C26.8941 23.0472 26.6575 22.689 26.7127 22.4464C26.7574 22.2489 27.1912 22.0401 27.4568 22.0345C28.7943 22.0058 30.1334 22.0082 31.4716 22.0106C31.8433 22.0112 32.2149 22.0119 32.5863 22.0119H42.1565ZM30.4528 39.1408L30.4466 39.1483L30.4383 39.1584C30.4764 39.2035 30.5145 39.2479 30.5526 39.2924L30.5531 39.293L30.5532 39.293C30.5911 39.3372 30.6291 39.3815 30.667 39.4264C32.1828 38.1896 33.6322 36.8621 35.1001 35.5178C36.247 34.4673 37.4052 33.4066 38.615 32.3709C40.9497 34.797 43.366 34.8478 45.7243 32.3455C48.4193 34.7744 51.0195 37.1187 53.6172 39.4631C53.6631 39.4137 53.7097 39.3644 53.7564 39.3151L53.7572 39.3142L53.7581 39.3133C53.8042 39.2645 53.8504 39.2157 53.8958 39.1668C51.8164 36.6447 49.7344 34.1225 47.5967 31.5328L47.4175 31.3158C50.7893 28.8598 54.1259 26.4308 57.6671 23.8529L57.7406 23.7993L57.929 23.6622C57.942 23.9027 57.9544 24.0984 57.965 24.2653V24.2654L57.965 24.2655L57.965 24.2664V24.2664C57.9842 24.5705 57.9974 24.7787 57.9974 24.9881C58 30.2127 58 35.4374 58 40.662C58 42.2503 57.3085 42.9979 55.8283 42.9979C46.7287 43.0007 37.6265 43.0007 28.5268 42.9979C26.9178 42.9979 26.1842 42.2136 26.1842 40.5181C26.1842 39.2123 26.1841 37.9065 26.1839 36.6007C26.1834 32.6819 26.1829 28.763 26.1869 24.8442C26.1869 23.8963 26.4182 23.7327 27.136 24.2461C29.7934 26.1494 32.44 28.0701 35.0862 29.9906L35.0871 29.9913C35.6294 30.3849 36.1717 30.7785 36.7141 31.1719C36.7402 31.1911 36.7552 31.2267 36.7779 31.2806C36.7917 31.3135 36.8085 31.3533 36.8324 31.4004C34.7263 33.9575 32.6019 36.5342 30.4774 39.1109L30.4569 39.1358L30.4528 39.1408ZM12.0077 26.3649H24.0204V24.6722H12.0077V26.3649ZM18.0127 32.3653H6V30.6727H18.0127V32.3653ZM9.62828 37.0737H21.641V35.3811H9.62828V37.0737Z" fill="#49A49C"/>
</svg>
