<svg width="56" height="56" viewBox="0 0 56 56" fill="none" xmlns="http://www.w3.org/2000/svg">
<path fill-rule="evenodd" clip-rule="evenodd" d="M39.3213 33.7388L39.3189 33.7423C38.8394 34.4272 37.8244 34.4272 37.4919 34.4272C36.8689 34.4272 36.5283 34.1495 35.9648 33.6898C35.7863 33.5428 35.5762 33.3713 35.3184 33.1777L34.7024 32.711L35.4678 32.6083C36.1934 32.5103 36.9938 32.4602 37.8454 32.4602C38.9246 32.4602 39.7552 32.823 39.7552 32.823C39.6887 33.061 39.4683 33.5218 39.3213 33.7388V33.7388ZM30.8827 31.9328C28.1726 32.5593 25.2944 33.4343 22.5563 34.4645L21.8574 34.727L22.1514 34.041C23.4243 31.0718 24.6376 27.706 25.5686 24.563L25.7809 23.8467L26.1496 24.4965C26.5661 25.2303 27.0153 25.9665 27.4843 26.6863C28.6019 28.4095 29.8351 30.044 31.0484 31.4113L31.4042 31.8115L30.8827 31.9328ZM24.0928 15.358C24.1383 14.5355 24.7169 13.8297 24.9654 13.699L24.9643 13.6978C25.0448 13.6593 25.2046 13.6197 25.3831 13.7958C25.3971 13.8098 26.8519 15.5913 25.5523 18.641L25.3609 19.0517L25.0401 18.732C24.0881 17.5595 24.0484 16.1478 24.0928 15.358V15.358ZM18.2291 38.6575C15.9646 42.7455 14.8096 43.1212 14.6031 43.155L14.4643 43.1783L14.3558 43.092C13.7433 42.6137 13.6686 42.2497 13.6721 41.986C13.7969 40.9687 15.2984 39.6177 17.7963 38.2258L18.7693 37.6833L18.2291 38.6575ZM37.5806 30.9867C36.3614 30.9867 34.9288 31.1395 33.3223 31.4428L33.1543 31.4755L33.0341 31.3518C30.6483 28.8715 28.1738 25.2852 26.4156 21.7595L26.3654 21.6557L26.3923 21.5425C26.8869 19.4985 27.4038 17.3588 27.4084 15.2425C27.4108 14.602 27.3804 13.9055 27.0083 13.3607C26.6279 12.8018 26.1403 12.2687 25.5371 12.0948C25.2256 12.005 24.8849 12.0108 24.5128 12.1555C23.8769 12.4017 23.3601 12.9792 23.0894 13.594C22.1526 15.7232 23.7031 19.5755 24.7123 21.6825L24.7624 21.7863L24.7333 21.8995C23.6483 26.1415 21.8178 31.22 19.8356 35.4865L19.7854 35.5938L19.6781 35.6428C17.4078 36.6648 9.32042 40.404 13.0783 43.9868C13.3956 44.289 13.7759 44.5433 14.2076 44.6285C15.7628 44.9377 17.0869 43.2355 17.8686 42.1365C18.8159 40.8042 19.8426 39.0192 20.9171 36.8305L20.9696 36.7255L21.0769 36.6788C24.4871 35.2123 28.7524 33.8765 32.4904 33.103L32.6514 33.0703L32.7728 33.1823C34.7619 35.0443 36.5084 35.9882 37.9644 35.9882C39.2827 35.9882 40.4238 35.133 40.9849 33.9582C42.1107 31.5945 39.2594 30.9867 37.5806 30.9867V30.9867ZM49.0594 54.4098H7.71975C7.55875 54.4098 7.42342 54.2745 7.42342 54.1135V1.88651C7.42342 1.72667 7.55875 1.59017 7.71975 1.59017H33.0376L33.0388 16.03C33.0854 17.0508 33.9558 17.8815 34.9789 17.8815H49.3558V54.1135C49.3558 54.2745 49.2193 54.4098 49.0594 54.4098V54.4098ZM34.6289 2.71365L48.2288 16.2902H34.9789C34.8039 16.2902 34.6359 16.1315 34.6289 15.9938V2.71365ZM50.6578 16.4663L34.3956 0.232167C34.3851 0.221667 34.3688 0.217 34.3571 0.2065C34.2918 0.148167 34.2218 0.0956667 34.1401 0.0618333C34.0444 0.0221667 33.9394 0 33.8333 0H7.71975C6.67909 0 5.83325 0.845833 5.83325 1.8865V54.1135C5.83325 55.1542 6.67909 56 7.71975 56H49.0594C50.1001 56 50.9471 55.1542 50.9471 54.1135V17.2212C50.9552 17.1757 50.9739 17.1337 50.9739 17.0858C50.9739 16.8292 50.8456 16.6122 50.6578 16.4663V16.4663Z" fill="#C5281C"/>
</svg>
