<svg viewBox="0 0 64 64" fill="none" xmlns="http://www.w3.org/2000/svg">
<path fill-rule="evenodd" clip-rule="evenodd" d="M14.8252 20.901C15.3081 20.7026 15.7571 20.516 16.1821 20.3394C17.2988 19.8754 18.2494 19.4803 19.212 19.1224C19.5664 18.9907 20.0473 18.9476 20.3891 19.0819C23.4809 20.2879 26.564 21.5185 29.7998 22.8101C30.8398 23.2252 31.8955 23.6466 32.9724 24.0755C32.6362 24.2266 32.3094 24.3802 31.9894 24.5307C29.7431 25.587 27.8292 26.4869 25.3277 25.2207C23.1089 24.0946 20.7727 23.2012 18.2918 22.2525L18.2918 22.2525L18.2917 22.2525L18.2917 22.2525C17.1668 21.8223 16.0121 21.3808 14.8252 20.901ZM8.76594 25.9673C7.85452 25.6026 6.93436 25.2343 6.00339 24.861C6.00339 25.9071 6.00253 26.9415 6.00167 27.9667C5.99865 31.5871 5.99573 35.0932 6.03124 38.5978C6.0363 39.0361 6.31981 39.7303 6.65648 39.8697C9.96562 41.2485 13.2959 42.5752 16.7672 43.9582C17.6269 44.3006 18.4952 44.6466 19.374 44.9976C19.374 44.0103 19.3747 43.0347 19.3754 42.0684V42.0681C19.3783 38.2488 19.381 34.5753 19.3385 30.9035C19.3335 30.564 18.8981 30.0649 18.5462 29.9205C15.3357 28.5965 12.1096 27.3055 8.76594 25.9673ZM33.7381 27.7453C33.7375 26.7991 33.7369 25.8473 33.7369 24.8887C33.4067 25.0199 33.0999 25.1533 32.807 25.2805L32.8069 25.2806C32.1948 25.5465 31.6433 25.7862 31.0663 25.925C29.1653 26.381 28.1856 27.3995 28.6134 29.439C28.8413 30.5208 28.3071 31.0909 27.3478 31.3974C26.8508 31.5567 26.355 31.721 25.7767 31.9126L25.7763 31.9128L25.7759 31.9129L25.7758 31.9129C25.5356 31.9926 25.281 32.0769 25.0063 32.1676V28.38C24.5911 28.5438 24.1934 28.6963 23.8095 28.8435L23.8094 28.8435L23.8089 28.8437L23.8085 28.8439L23.8081 28.844L23.8079 28.8441L23.8077 28.8442C22.8509 29.2109 21.9798 29.5448 21.1384 29.9406C20.7992 30.1002 20.4043 30.6044 20.4017 30.954C20.363 34.655 20.3653 38.3575 20.3677 42.1885V42.1886V42.1887V42.1888V42.1889V42.189V42.1891V42.1892V42.1893C20.3682 43.1181 20.3688 44.0544 20.3688 45C21.2028 44.6675 22.0291 44.3386 22.8489 44.0123C26.3264 42.6283 29.6881 41.2904 33.0332 39.9126C33.3597 39.7784 33.704 39.2134 33.7065 38.8435C33.7429 35.1741 33.7405 31.5031 33.7381 27.7453ZM16.4047 28.1316C19.1968 29.5631 21.6117 29.2287 24.2544 27.5033C23.1755 27.0715 22.0933 26.6616 21.0156 26.2533L21.0156 26.2533C18.5334 25.313 16.0753 24.3817 13.7367 23.214C11.3473 22.0218 9.57615 22.8707 7.38145 23.9226L7.38142 23.9227L7.38131 23.9227L7.38087 23.9229L7.38082 23.9229L7.38066 23.923C7.19239 24.0133 7.001 24.105 6.80583 24.1971C7.88213 24.63 8.93293 25.0281 9.95867 25.4167L9.9587 25.4167L9.95872 25.4167C12.2284 26.2765 14.3754 27.0899 16.4047 28.1316ZM57 24.0605H37.015V22.5404H57V24.0605ZM37.015 27.4985H57V25.9783H37.015V27.4985ZM57 31.1722H37.015V29.652H57V31.1722ZM37.015 34.3694H57V32.8493H37.015V34.3694ZM50.34 37.397H37.015V35.8768H50.34V37.397ZM37.015 40.3459H48.7731V38.8258H37.015V40.3459Z" fill="#49A49C"/>
</svg>
