<svg viewBox="0 0 24 24" fill="none" xmlns="http://www.w3.org/2000/svg">
<path fill-rule="evenodd" clip-rule="evenodd" d="M8.52877 5.61908C8.58377 5.71488 8.68334 5.7685 8.78562 5.7685C8.83654 5.7685 8.88746 5.75567 8.93428 5.72862C9.07567 5.64612 9.12477 5.46279 9.04294 5.31979L7.40495 2.46025C7.32312 2.31725 7.14173 2.26821 6.99989 2.35071C6.85804 2.43321 6.8094 2.61608 6.89078 2.75954L8.52877 5.61908ZM6.58164 7.58258L3.74482 5.93121C3.60298 5.84825 3.42159 5.89729 3.3393 6.04075C3.25747 6.18375 3.30612 6.36663 3.44796 6.44958L6.28432 8.1005C6.3316 8.128 6.38251 8.14038 6.43298 8.14038C6.53527 8.14038 6.63528 8.08721 6.69029 7.99096C6.77212 7.84796 6.72302 7.66508 6.58164 7.58258V7.58258ZM5.57193 10.7827H2.29641C2.13275 10.7827 2 10.917 2 11.082C2 11.247 2.13275 11.3808 2.29641 11.3808H5.57193C5.73559 11.3808 5.86834 11.247 5.86834 11.082C5.86834 10.917 5.73559 10.7827 5.57193 10.7827V10.7827ZM21.7031 10.7827H18.4276C18.264 10.7827 18.1312 10.917 18.1312 11.082C18.1312 11.247 18.264 11.3808 18.4276 11.3808H21.7031C21.8668 11.3808 22 11.247 22 11.082C22 10.917 21.8668 10.7827 21.7031 10.7827V10.7827ZM20.6602 6.04075C20.5784 5.89729 20.3966 5.84825 20.2547 5.93121L17.4184 7.58258C17.2761 7.66508 17.2279 7.84796 17.3093 7.99096C17.3647 8.08721 17.4643 8.14038 17.5666 8.14038C17.617 8.14038 17.6684 8.128 17.7148 8.1005L20.5516 6.44958C20.6934 6.36663 20.7421 6.18375 20.6602 6.04075V6.04075ZM15.0653 5.72862C15.1116 5.75567 15.163 5.7685 15.2135 5.7685C15.3162 5.7685 15.4153 5.71488 15.4708 5.61908L17.1083 2.75954C17.1901 2.61608 17.1415 2.43321 17.0001 2.35071C16.8578 2.26821 16.6764 2.31725 16.5946 2.46025L14.9566 5.31979C14.8748 5.46279 14.9234 5.64612 15.0653 5.72862V5.72862ZM11.9998 4.90042C12.1634 4.90042 12.2966 4.76658 12.2966 4.60158V1.29883C12.2966 1.13383 12.1634 1 11.9998 1C11.8357 1 11.7029 1.13383 11.7029 1.29883V4.60158C11.7029 4.76658 11.8357 4.90042 11.9998 4.90042V4.90042ZM16.9278 11.126C16.9278 9.76333 16.3909 8.49192 15.4167 7.54638C14.4897 6.64713 13.2836 6.15808 12.0016 6.15808C11.9366 6.15808 11.872 6.159 11.8075 6.16175C9.18023 6.26258 7.01262 8.58908 7.07353 11.2433C7.09854 12.3529 7.47905 13.3947 8.17462 14.2559C8.9652 15.2367 9.40118 16.4738 9.40118 17.7383V18.1444C9.40118 18.4552 9.65213 18.7082 9.9599 18.7082H14.0392C14.3474 18.7082 14.5988 18.4552 14.5988 18.1444V17.7388C14.5988 16.4591 15.0262 15.2322 15.8022 14.2843C16.5278 13.3979 16.9278 12.2764 16.9278 11.126V11.126ZM15.8286 7.11554C16.9201 8.17475 17.5206 9.59925 17.5206 11.126C17.5206 12.4153 17.0729 13.672 16.26 14.6648C15.5712 15.5063 15.1916 16.598 15.1916 17.7388V18.1444C15.1916 18.7852 14.6747 19.3063 14.0392 19.3063H9.9599C9.3248 19.3063 8.80745 18.7852 8.80745 18.1444V17.7383C8.80745 16.6108 8.4192 15.5081 7.71364 14.6336C6.93533 13.6683 6.5089 12.501 6.48026 11.257C6.4107 8.2325 8.79017 5.67867 11.7843 5.56363C13.3023 5.5045 14.7375 6.05679 15.8286 7.11554V7.11554ZM12.8863 21.4678H11.1133C11.116 21.4848 11.1233 21.5003 11.1233 21.5182C11.1233 22.0054 11.5165 22.4019 11.9998 22.4019C12.4826 22.4019 12.8763 22.0054 12.8763 21.5182C12.8763 21.5003 12.8831 21.4848 12.8863 21.4678V21.4678ZM14.9743 21.1685C14.9743 21.334 14.8411 21.4678 14.677 21.4678H13.4591C13.4623 21.4848 13.4691 21.5003 13.4691 21.5182C13.4691 22.3354 12.8104 23 11.9998 23C11.1896 23 10.53 22.3354 10.53 21.5182C10.53 21.5003 10.5373 21.4848 10.5404 21.4678H9.32207C9.15841 21.4678 9.02566 21.334 9.02566 21.1685C9.02566 21.0035 9.15841 20.8692 9.32207 20.8692H14.677C14.8411 20.8692 14.9743 21.0035 14.9743 21.1685V21.1685ZM14.9743 20.0387C14.9743 20.2042 14.8411 20.338 14.677 20.338H9.32207C9.15841 20.338 9.02566 20.2042 9.02566 20.0387C9.02566 19.8737 9.15841 19.7399 9.32207 19.7399H14.677C14.8411 19.7399 14.9743 19.8737 14.9743 20.0387V20.0387Z" fill="url(#paint0_linear)"/>
</svg>
