<svg viewBox="0 0 16 17" fill="none" xmlns="http://www.w3.org/2000/svg">
<path fill-rule="evenodd" clip-rule="evenodd" d="M8.00004 1.83337C4.32004 1.83337 1.33337 4.82004 1.33337 8.50004C1.33337 12.18 4.32004 15.1667 8.00004 15.1667C11.68 15.1667 14.6667 12.18 14.6667 8.50004C14.6667 4.82004 11.68 1.83337 8.00004 1.83337ZM8.00004 9.16671C7.63337 9.16671 7.33337 8.86671 7.33337 8.50004V5.83337C7.33337 5.46671 7.63337 5.16671 8.00004 5.16671C8.36671 5.16671 8.66671 5.46671 8.66671 5.83337V8.50004C8.66671 8.86671 8.36671 9.16671 8.00004 9.16671ZM7.33337 10.5V11.8334H8.66671V10.5H7.33337Z" fill="black"/>
</svg>
