<svg width="20" height="20" viewBox="0 0 20 20" fill="none" xmlns="http://www.w3.org/2000/svg">
<path fill-rule="evenodd" clip-rule="evenodd" d="M11.0052 14.6667L11.9301 13.3451C12.0735 13.1402 12.3153 13.0274 12.5645 13.0491C12.8136 13.0708 13.0322 13.2238 13.138 13.4504C13.2438 13.677 13.2206 13.9429 13.0772 14.1478L12.0057 15.6785C11.9519 15.7555 11.883 15.8209 11.8032 15.8707C10.1307 17.62 7.43177 17.8865 5.44943 16.4982C3.46709 15.1099 2.79493 12.4824 3.86706 10.3127C3.88573 10.2241 3.92306 10.1363 3.97906 10.057L5.04959 8.52725C5.18925 8.31323 5.43445 8.19233 5.68926 8.21184C5.94407 8.23135 6.168 8.38817 6.27345 8.62096C6.3789 8.85375 6.34911 9.1255 6.19573 9.32992L5.27079 10.6534L5.27639 10.6562C4.30987 12.2335 4.73775 14.2907 6.25308 15.3518C7.76841 16.4129 9.84783 16.1116 10.9996 14.6639L11.0052 14.6677V14.6667ZM16.1329 9.68738C16.1132 9.7793 16.0751 9.86628 16.0209 9.94312L14.9504 11.4729C14.8107 11.6869 14.5655 11.8078 14.3107 11.7883C14.0559 11.7688 13.832 11.6119 13.7265 11.3791C13.6211 11.1464 13.6509 10.8746 13.8043 10.6702L14.6069 9.52218C15.6992 7.93878 15.3089 5.77066 13.7331 4.66751C12.1572 3.56437 9.98649 3.9397 8.87253 5.50792L8.06986 6.65498C7.84821 6.97174 7.41175 7.04883 7.09499 6.82718C6.77824 6.60553 6.70114 6.16907 6.92279 5.85232L7.99426 4.32165C8.04813 4.24458 8.11702 4.17918 8.19679 4.12938C9.86928 2.38013 12.5682 2.11359 14.5506 3.5019C16.5329 4.89022 17.2051 7.51767 16.1329 9.68738ZM11.8741 7.32418C12.0263 7.4307 12.1299 7.59333 12.1621 7.77626C12.1943 7.9592 12.1525 8.14743 12.0459 8.29952L9.10119 12.5042C8.95781 12.7091 8.71601 12.8219 8.46686 12.8002C8.21772 12.7785 7.99909 12.6255 7.89333 12.3989C7.78757 12.1723 7.81075 11.9064 7.95413 11.7015L10.8988 7.49592C11.0053 7.34375 11.1679 7.24015 11.3509 7.20794C11.5338 7.17573 11.722 7.21755 11.8741 7.32418Z" fill="#394C4A"/>
<mask id="mask0" mask-type="alpha" maskUnits="userSpaceOnUse" x="3" y="2" width="14" height="16">
<path fill-rule="evenodd" clip-rule="evenodd" d="M11.0052 14.6667L11.9301 13.3451C12.0735 13.1402 12.3153 13.0274 12.5645 13.0491C12.8136 13.0708 13.0322 13.2238 13.138 13.4504C13.2438 13.677 13.2206 13.9429 13.0772 14.1478L12.0057 15.6785C11.9519 15.7555 11.883 15.8209 11.8032 15.8707C10.1307 17.62 7.43177 17.8865 5.44943 16.4982C3.46709 15.1099 2.79493 12.4824 3.86706 10.3127C3.88573 10.2241 3.92306 10.1363 3.97906 10.057L5.04959 8.52725C5.18925 8.31323 5.43445 8.19233 5.68926 8.21184C5.94407 8.23135 6.168 8.38817 6.27345 8.62096C6.3789 8.85375 6.34911 9.1255 6.19573 9.32992L5.27079 10.6534L5.27639 10.6562C4.30987 12.2335 4.73775 14.2907 6.25308 15.3518C7.76841 16.4129 9.84783 16.1116 10.9996 14.6639L11.0052 14.6677V14.6667ZM16.1329 9.68738C16.1132 9.7793 16.0751 9.86628 16.0209 9.94312L14.9504 11.4729C14.8107 11.6869 14.5655 11.8078 14.3107 11.7883C14.0559 11.7688 13.832 11.6119 13.7265 11.3791C13.6211 11.1464 13.6509 10.8746 13.8043 10.6702L14.6069 9.52218C15.6992 7.93878 15.3089 5.77066 13.7331 4.66751C12.1572 3.56437 9.98649 3.9397 8.87253 5.50792L8.06986 6.65498C7.84821 6.97174 7.41175 7.04883 7.09499 6.82718C6.77824 6.60553 6.70114 6.16907 6.92279 5.85232L7.99426 4.32165C8.04813 4.24458 8.11702 4.17918 8.19679 4.12938C9.86928 2.38013 12.5682 2.11359 14.5506 3.5019C16.5329 4.89022 17.2051 7.51767 16.1329 9.68738ZM11.8741 7.32418C12.0263 7.4307 12.1299 7.59333 12.1621 7.77626C12.1943 7.9592 12.1525 8.14743 12.0459 8.29952L9.10119 12.5042C8.95781 12.7091 8.71601 12.8219 8.46686 12.8002C8.21772 12.7785 7.99909 12.6255 7.89333 12.3989C7.78757 12.1723 7.81075 11.9064 7.95413 11.7015L10.8988 7.49592C11.0053 7.34375 11.1679 7.24015 11.3509 7.20794C11.5338 7.17573 11.722 7.21755 11.8741 7.32418Z" fill="white"/>
</mask>
<g mask="url(#mask0)">
<rect x="0.666656" y="0.666504" width="18.6667" height="18.6667" fill="#394C4A"/>
</g>
</svg>
