<svg viewBox="0 0 20 20" fill="none" xmlns="http://www.w3.org/2000/svg">
<path fill-rule="evenodd" clip-rule="evenodd" d="M7.66665 5.56644C7.66665 5.95284 7.98025 6.26644 8.36665 6.26644H17.2333C17.6199 6.26644 17.9333 5.95304 17.9333 5.56644C17.9333 5.17984 17.6199 4.86644 17.2333 4.86644H8.36665C7.98005 4.86644 7.66665 5.17984 7.66665 5.56644ZM2.06665 5.56644C2.06665 4.66484 2.79185 3.93311 3.69998 3.93311C4.60158 3.93311 5.33332 4.65831 5.33332 5.56644C5.33332 6.46804 4.60812 7.19977 3.69998 7.19977C2.79838 7.19977 2.06665 6.47457 2.06665 5.56644ZM7.66665 13.9664C7.66665 14.3528 7.98025 14.6664 8.36665 14.6664H17.2333C17.6199 14.6664 17.9333 14.353 17.9333 13.9664C17.9333 13.5798 17.6199 13.2664 17.2333 13.2664H8.36665C7.98005 13.2664 7.66665 13.5798 7.66665 13.9664ZM2.06665 13.9664C2.06665 13.0648 2.79185 12.3331 3.69998 12.3331C4.60158 12.3331 5.33332 13.0583 5.33332 13.9664C5.33332 14.868 4.60812 15.5998 3.69998 15.5998C2.79838 15.5998 2.06665 14.8746 2.06665 13.9664Z" fill="#394C4A"/>
</svg>
