<svg viewBox="0 0 64 64" fill="none" xmlns="http://www.w3.org/2000/svg">
<path fill-rule="evenodd" clip-rule="evenodd" d="M14.2139 51.2071H42.5314C43.7527 51.2071 44.7453 50.2146 44.7453 48.9906V31.6387C44.0481 31.9658 43.333 32.254 42.6166 32.5428L42.6165 32.5428C42.0803 32.759 41.5433 32.9754 41.0125 33.2087C40.8183 33.2938 40.459 33.2087 40.2834 33.0677C40.1798 32.9885 40.1575 32.8066 40.1364 32.6335C40.1276 32.5621 40.1191 32.4923 40.1051 32.4317C40.5687 31.6807 40.9475 30.8949 41.3242 30.1135L41.3242 30.1134C42.0739 28.5581 42.8153 27.0201 44.2003 25.8087C44.3824 25.6493 44.5641 25.4894 44.7453 25.3289V17.2139C44.7453 15.9925 43.7554 15 42.5314 15H14.2139C12.9925 15 12 15.9899 12 17.2139V48.9932C12 50.2146 12.9899 51.2071 14.2139 51.2071ZM42.0902 31.2449L42.0902 31.2449L42.0902 31.2449L42.1717 31.0795C42.5036 30.4056 42.8373 29.7226 43.2184 28.9423L43.3115 28.7517L43.3141 28.7544L43.3142 28.7543L43.5453 28.9985L43.787 29.2537L43.7899 29.2568C44.1007 29.5849 44.4036 29.9047 44.7453 30.2663V30.2664L44.8203 30.3455C44.3743 30.528 43.9505 30.7008 43.5385 30.8688C43.0853 31.0537 42.6463 31.2327 42.2073 31.4125L42.2053 31.4096L42.2046 31.4099L42.1786 31.3729C42.1492 31.3311 42.1189 31.288 42.0902 31.2449ZM44.7453 28.4722V28.4717L44.8525 28.587C45.1987 28.9593 45.5386 29.3247 45.8979 29.7096L49.3415 26.4815L49.3447 26.4785L49.3665 26.458C51.6335 24.3329 53.8883 22.2194 56.1664 20.0824L55.7097 19.5957L55.7091 19.5951L55.7075 19.5934C55.2346 19.0896 54.7803 18.6056 54.2878 18.0787C52.3918 19.8582 50.5213 21.613 48.6567 23.3623L48.635 23.3827L48.6298 23.3875C47.3344 24.6028 46.0417 25.8155 44.7453 27.0321L44.679 27.0942L44.087 27.6498L44.03 27.7033L44.0394 27.7134C44.283 27.9757 44.5159 28.226 44.7453 28.4722ZM38.9338 28.8848H17.8088C16.3639 28.8848 15.1851 27.7086 15.1851 26.2611V21.8413C15.1851 20.3964 16.3612 19.2177 17.8088 19.2177H38.9338C40.3787 19.2177 41.5575 20.3938 41.5575 21.8413V26.2611C41.5575 27.7086 40.3814 28.8848 38.9338 28.8848ZM17.8088 20.2235C16.9147 20.2235 16.1883 20.9499 16.1883 21.844V26.2638C16.1883 27.1578 16.9147 27.8843 17.8088 27.8843H38.9338C39.8279 27.8843 40.5543 27.1578 40.5543 26.2638V21.8413C40.5543 20.9472 39.8279 20.2208 38.9338 20.2208H17.8088V20.2235ZM25.0997 49.7383H18.2691C16.8242 49.7383 15.6454 48.5622 15.6454 47.1173V42.6975C15.6454 41.2526 16.8216 40.0739 18.2691 40.0739H25.0997C26.5446 40.0739 27.7207 41.25 27.7207 42.6975V47.1173C27.7234 48.5622 26.5472 49.7383 25.0997 49.7383ZM18.2691 41.077C17.375 41.077 16.6486 41.8034 16.6486 42.6975V47.1173C16.6486 48.0114 17.375 48.7378 18.2691 48.7378H25.0997C25.9938 48.7378 26.7202 48.0114 26.7202 47.1173V42.6975C26.7202 41.8034 25.9938 41.077 25.0997 41.077H18.2691ZM18.4421 31.2662H38.3005V32.2694H18.4421V31.2662ZM38.3005 34.0469H18.4421V35.05H38.3005V34.0469ZM18.4421 36.6919H38.3005V37.6951H18.4421V36.6919ZM38.9711 41.8274H29.7084V42.8306H38.9711V41.8274ZM29.7084 44.5229H38.9711V45.5261H29.7084V44.5229ZM38.9711 47.4739H29.7084V48.477H38.9711V47.4739ZM55.4956 16.9744C55.4004 17.0662 55.3052 17.158 55.2005 17.2592C55.6898 17.7773 56.1553 18.2748 56.6313 18.7835C56.7714 18.9332 56.9124 19.0838 57.0552 19.2363C57.2429 19.0524 57.3962 18.9045 57.5604 18.746C57.6196 18.6889 57.6802 18.6304 57.7443 18.5684C57.4316 18.2344 57.1268 17.9091 56.822 17.5838C56.5148 17.2558 56.2076 16.9279 55.8923 16.5913C55.7458 16.7333 55.6207 16.8539 55.4956 16.9744Z" fill="#49A49C"/>
</svg>
