<svg viewBox="0 0 24 24" fill="none" xmlns="http://www.w3.org/2000/svg">
<path fill-rule="evenodd" clip-rule="evenodd" d="M1.41987 21.2354C1.38867 21.3573 1.42279 21.4867 1.50996 21.5772C1.58486 21.6408 1.68289 21.67 1.78022 21.6576H1.87531L8.88201 19.7726C8.91832 19.7602 8.95219 19.7414 8.98211 19.7173C8.99764 19.7084 9.01125 19.6964 9.02214 19.6821L22.8904 5.75844C22.959 5.69296 22.9978 5.60212 22.9978 5.50711C22.9978 5.4121 22.959 5.32125 22.8904 5.25578L17.7655 0.103506C17.627 -0.0345021 17.4036 -0.0345021 17.265 0.103506L3.37674 14.0473C3.33861 14.0905 3.31117 14.1422 3.29667 14.1981L1.41987 21.2354ZM0.40391 23.995H23.5961C23.7316 24.0184 23.868 23.9589 23.9434 23.8434C24.0189 23.7279 24.0189 23.5785 23.9434 23.463C23.868 23.3475 23.7316 23.2879 23.5961 23.3114H0.40391C0.268397 23.2879 0.131958 23.3475 0.0565535 23.463C-0.0188512 23.5785 -0.0188512 23.7279 0.0565535 23.8434C0.131958 23.9589 0.268397 24.0184 0.40391 23.995ZM4.13247 14.2836L6.47972 16.6159L8.79694 18.9433L22.1497 5.50714L17.4902 0.847475L4.13247 14.2836ZM8.08626 19.2599L2.26069 20.8181L3.82218 14.9873L8.08626 19.2599ZM6.43467 14.2836C6.50057 14.3511 6.59076 14.3892 6.68491 14.3892C6.77755 14.389 6.86611 14.3508 6.93014 14.2836L16.6895 4.51187C16.758 4.4464 16.7968 4.35555 16.7968 4.26054C16.7968 4.16553 16.758 4.07468 16.6895 4.00921C16.5509 3.8712 16.3275 3.8712 16.189 4.00921L6.42966 13.8111C6.29363 13.9516 6.29586 14.176 6.43467 14.3138V14.2836ZM8.80195 16.5154C8.71025 16.5154 8.62221 16.4793 8.55671 16.4149V16.445C8.47738 16.3799 8.43096 16.2827 8.42999 16.1798C8.42902 16.0769 8.47362 15.9789 8.55171 15.9122L18.311 6.11034C18.3762 6.04149 18.4667 6.00252 18.5613 6.00252C18.6559 6.00252 18.7463 6.04149 18.8115 6.11034C18.9489 6.24947 18.9489 6.47386 18.8115 6.613L9.05219 16.4149C8.98431 16.4788 8.89497 16.5147 8.80195 16.5154Z" fill="#49A49C"/>
</svg>
