<svg width="20" height="20" viewBox="0 0 20 20" fill="none" xmlns="http://www.w3.org/2000/svg">
<path fill-rule="evenodd" clip-rule="evenodd" d="M3.07602 10.4984C3.11341 7.33634 5.5734 4.73336 8.72828 4.51758L8.76375 5.14291C6.29415 5.83171 5.27308 7.92238 5.14802 10.1036H8.67602C9.19122 10.1036 9.14268 10.5068 9.14268 11.0238V15.2341C9.14268 15.7512 8.72455 15.7036 8.20935 15.7036H3.54269C3.02749 15.7036 3.07602 15.2845 3.07602 14.7674V11.0238V10.4984ZM10.5427 10.4984C10.5801 7.33634 13.0401 4.73336 16.195 4.51758L16.2304 5.14291C13.7608 5.83264 12.7398 7.92331 12.6156 10.1036H16.1427C16.6579 10.1036 16.6094 10.5068 16.6094 11.0238V15.2341C16.6094 15.7512 16.1912 15.7036 15.676 15.7036H11.0094C10.4942 15.7036 10.5427 15.2845 10.5427 14.7674V11.0238V10.4984Z" fill="#394C4A"/>
<mask id="mask0" mask-type="alpha" maskUnits="userSpaceOnUse" x="3" y="4" width="14" height="12">
<path fill-rule="evenodd" clip-rule="evenodd" d="M3.07602 10.4984C3.11341 7.33634 5.5734 4.73336 8.72828 4.51758L8.76375 5.14291C6.29415 5.83171 5.27308 7.92238 5.14802 10.1036H8.67602C9.19122 10.1036 9.14268 10.5068 9.14268 11.0238V15.2341C9.14268 15.7512 8.72455 15.7036 8.20935 15.7036H3.54269C3.02749 15.7036 3.07602 15.2845 3.07602 14.7674V11.0238V10.4984ZM10.5427 10.4984C10.5801 7.33634 13.0401 4.73336 16.195 4.51758L16.2304 5.14291C13.7608 5.83264 12.7398 7.92331 12.6156 10.1036H16.1427C16.6579 10.1036 16.6094 10.5068 16.6094 11.0238V15.2341C16.6094 15.7512 16.1912 15.7036 15.676 15.7036H11.0094C10.4942 15.7036 10.5427 15.2845 10.5427 14.7674V11.0238V10.4984Z" fill="white"/>
</mask>
<g mask="url(#mask0)">
<rect x="0.666656" y="0.666504" width="18.6667" height="18.6667" fill="#394C4A"/>
</g>
</svg>
