<svg viewBox="0 0 366 275" fill="none" xmlns="http://www.w3.org/2000/svg">
<path opacity="0.292" fill-rule="evenodd" clip-rule="evenodd" d="M6 -7C6 -5.34315 4.65685 -4 3 -4C1.34315 -4 0 -5.34315 0 -7C0 -8.65685 1.34315 -10 3 -10C4.65685 -10 6 -8.65685 6 -7ZM37 -7C37 -5.34315 35.6569 -4 34 -4C32.3431 -4 31 -5.34315 31 -7C31 -8.65685 32.3431 -10 34 -10C35.6569 -10 37 -8.65685 37 -7ZM65 -4C66.6569 -4 68 -5.34315 68 -7C68 -8.65685 66.6569 -10 65 -10C63.3431 -10 62 -8.65685 62 -7C62 -5.34315 63.3431 -4 65 -4ZM99 -7C99 -5.34315 97.6569 -4 96 -4C94.3431 -4 93 -5.34315 93 -7C93 -8.65685 94.3431 -10 96 -10C97.6569 -10 99 -8.65685 99 -7ZM127 -4C128.657 -4 130 -5.34315 130 -7C130 -8.65685 128.657 -10 127 -10C125.343 -10 124 -8.65685 124 -7C124 -5.34315 125.343 -4 127 -4ZM161 -7C161 -5.34315 159.657 -4 158 -4C156.343 -4 155 -5.34315 155 -7C155 -8.65685 156.343 -10 158 -10C159.657 -10 161 -8.65685 161 -7ZM189 -4C190.657 -4 192 -5.34315 192 -7C192 -8.65685 190.657 -10 189 -10C187.343 -10 186 -8.65685 186 -7C186 -5.34315 187.343 -4 189 -4ZM223 -7C223 -5.34315 221.657 -4 220 -4C218.343 -4 217 -5.34315 217 -7C217 -8.65685 218.343 -10 220 -10C221.657 -10 223 -8.65685 223 -7ZM251 -4C252.657 -4 254 -5.34315 254 -7C254 -8.65685 252.657 -10 251 -10C249.343 -10 248 -8.65685 248 -7C248 -5.34315 249.343 -4 251 -4ZM285 -7C285 -5.34315 283.657 -4 282 -4C280.343 -4 279 -5.34315 279 -7C279 -8.65685 280.343 -10 282 -10C283.657 -10 285 -8.65685 285 -7ZM313 -4C314.657 -4 316 -5.34315 316 -7C316 -8.65685 314.657 -10 313 -10C311.343 -10 310 -8.65685 310 -7C310 -5.34315 311.343 -4 313 -4ZM347 -7C347 -5.34315 345.657 -4 344 -4C342.343 -4 341 -5.34315 341 -7C341 -8.65685 342.343 -10 344 -10C345.657 -10 347 -8.65685 347 -7ZM375 -4C376.657 -4 378 -5.34315 378 -7C378 -8.65685 376.657 -10 375 -10C373.343 -10 372 -8.65685 372 -7C372 -5.34315 373.343 -4 375 -4ZM6 24C6 25.6569 4.65685 27 3 27C1.34315 27 0 25.6569 0 24C0 22.3431 1.34315 21 3 21C4.65685 21 6 22.3431 6 24ZM34 27C35.6569 27 37 25.6569 37 24C37 22.3431 35.6569 21 34 21C32.3431 21 31 22.3431 31 24C31 25.6569 32.3431 27 34 27ZM68 24C68 25.6569 66.6569 27 65 27C63.3431 27 62 25.6569 62 24C62 22.3431 63.3431 21 65 21C66.6569 21 68 22.3431 68 24ZM96 27C97.6569 27 99 25.6569 99 24C99 22.3431 97.6569 21 96 21C94.3431 21 93 22.3431 93 24C93 25.6569 94.3431 27 96 27ZM130 24C130 25.6569 128.657 27 127 27C125.343 27 124 25.6569 124 24C124 22.3431 125.343 21 127 21C128.657 21 130 22.3431 130 24ZM158 27C159.657 27 161 25.6569 161 24C161 22.3431 159.657 21 158 21C156.343 21 155 22.3431 155 24C155 25.6569 156.343 27 158 27ZM192 24C192 25.6569 190.657 27 189 27C187.343 27 186 25.6569 186 24C186 22.3431 187.343 21 189 21C190.657 21 192 22.3431 192 24ZM220 27C221.657 27 223 25.6569 223 24C223 22.3431 221.657 21 220 21C218.343 21 217 22.3431 217 24C217 25.6569 218.343 27 220 27ZM254 24C254 25.6569 252.657 27 251 27C249.343 27 248 25.6569 248 24C248 22.3431 249.343 21 251 21C252.657 21 254 22.3431 254 24ZM282 27C283.657 27 285 25.6569 285 24C285 22.3431 283.657 21 282 21C280.343 21 279 22.3431 279 24C279 25.6569 280.343 27 282 27ZM316 24C316 25.6569 314.657 27 313 27C311.343 27 310 25.6569 310 24C310 22.3431 311.343 21 313 21C314.657 21 316 22.3431 316 24ZM344 27C345.657 27 347 25.6569 347 24C347 22.3431 345.657 21 344 21C342.343 21 341 22.3431 341 24C341 25.6569 342.343 27 344 27ZM378 24C378 25.6569 376.657 27 375 27C373.343 27 372 25.6569 372 24C372 22.3431 373.343 21 375 21C376.657 21 378 22.3431 378 24ZM3 58C4.65685 58 6 56.6569 6 55C6 53.3431 4.65685 52 3 52C1.34315 52 0 53.3431 0 55C0 56.6569 1.34315 58 3 58ZM37 55C37 56.6569 35.6569 58 34 58C32.3431 58 31 56.6569 31 55C31 53.3431 32.3431 52 34 52C35.6569 52 37 53.3431 37 55ZM65 58C66.6569 58 68 56.6569 68 55C68 53.3431 66.6569 52 65 52C63.3431 52 62 53.3431 62 55C62 56.6569 63.3431 58 65 58ZM99 55C99 56.6569 97.6569 58 96 58C94.3431 58 93 56.6569 93 55C93 53.3431 94.3431 52 96 52C97.6569 52 99 53.3431 99 55ZM127 58C128.657 58 130 56.6569 130 55C130 53.3431 128.657 52 127 52C125.343 52 124 53.3431 124 55C124 56.6569 125.343 58 127 58ZM161 55C161 56.6569 159.657 58 158 58C156.343 58 155 56.6569 155 55C155 53.3431 156.343 52 158 52C159.657 52 161 53.3431 161 55ZM189 58C190.657 58 192 56.6569 192 55C192 53.3431 190.657 52 189 52C187.343 52 186 53.3431 186 55C186 56.6569 187.343 58 189 58ZM223 55C223 56.6569 221.657 58 220 58C218.343 58 217 56.6569 217 55C217 53.3431 218.343 52 220 52C221.657 52 223 53.3431 223 55ZM251 58C252.657 58 254 56.6569 254 55C254 53.3431 252.657 52 251 52C249.343 52 248 53.3431 248 55C248 56.6569 249.343 58 251 58ZM285 55C285 56.6569 283.657 58 282 58C280.343 58 279 56.6569 279 55C279 53.3431 280.343 52 282 52C283.657 52 285 53.3431 285 55ZM313 58C314.657 58 316 56.6569 316 55C316 53.3431 314.657 52 313 52C311.343 52 310 53.3431 310 55C310 56.6569 311.343 58 313 58ZM347 55C347 56.6569 345.657 58 344 58C342.343 58 341 56.6569 341 55C341 53.3431 342.343 52 344 52C345.657 52 347 53.3431 347 55ZM375 58C376.657 58 378 56.6569 378 55C378 53.3431 376.657 52 375 52C373.343 52 372 53.3431 372 55C372 56.6569 373.343 58 375 58ZM6 86C6 87.6569 4.65685 89 3 89C1.34315 89 0 87.6569 0 86C0 84.3431 1.34315 83 3 83C4.65685 83 6 84.3431 6 86ZM34 89C35.6569 89 37 87.6569 37 86C37 84.3431 35.6569 83 34 83C32.3431 83 31 84.3431 31 86C31 87.6569 32.3431 89 34 89ZM68 86C68 87.6569 66.6569 89 65 89C63.3431 89 62 87.6569 62 86C62 84.3431 63.3431 83 65 83C66.6569 83 68 84.3431 68 86ZM96 89C97.6569 89 99 87.6569 99 86C99 84.3431 97.6569 83 96 83C94.3431 83 93 84.3431 93 86C93 87.6569 94.3431 89 96 89ZM130 86C130 87.6569 128.657 89 127 89C125.343 89 124 87.6569 124 86C124 84.3431 125.343 83 127 83C128.657 83 130 84.3431 130 86ZM158 89C159.657 89 161 87.6569 161 86C161 84.3431 159.657 83 158 83C156.343 83 155 84.3431 155 86C155 87.6569 156.343 89 158 89ZM192 86C192 87.6569 190.657 89 189 89C187.343 89 186 87.6569 186 86C186 84.3431 187.343 83 189 83C190.657 83 192 84.3431 192 86ZM220 89C221.657 89 223 87.6569 223 86C223 84.3431 221.657 83 220 83C218.343 83 217 84.3431 217 86C217 87.6569 218.343 89 220 89ZM254 86C254 87.6569 252.657 89 251 89C249.343 89 248 87.6569 248 86C248 84.3431 249.343 83 251 83C252.657 83 254 84.3431 254 86ZM282 89C283.657 89 285 87.6569 285 86C285 84.3431 283.657 83 282 83C280.343 83 279 84.3431 279 86C279 87.6569 280.343 89 282 89ZM316 86C316 87.6569 314.657 89 313 89C311.343 89 310 87.6569 310 86C310 84.3431 311.343 83 313 83C314.657 83 316 84.3431 316 86ZM344 89C345.657 89 347 87.6569 347 86C347 84.3431 345.657 83 344 83C342.343 83 341 84.3431 341 86C341 87.6569 342.343 89 344 89ZM378 86C378 87.6569 376.657 89 375 89C373.343 89 372 87.6569 372 86C372 84.3431 373.343 83 375 83C376.657 83 378 84.3431 378 86ZM3 120C4.65685 120 6 118.657 6 117C6 115.343 4.65685 114 3 114C1.34315 114 0 115.343 0 117C0 118.657 1.34315 120 3 120ZM37 117C37 118.657 35.6569 120 34 120C32.3431 120 31 118.657 31 117C31 115.343 32.3431 114 34 114C35.6569 114 37 115.343 37 117ZM65 120C66.6569 120 68 118.657 68 117C68 115.343 66.6569 114 65 114C63.3431 114 62 115.343 62 117C62 118.657 63.3431 120 65 120ZM99 117C99 118.657 97.6569 120 96 120C94.3431 120 93 118.657 93 117C93 115.343 94.3431 114 96 114C97.6569 114 99 115.343 99 117ZM127 120C128.657 120 130 118.657 130 117C130 115.343 128.657 114 127 114C125.343 114 124 115.343 124 117C124 118.657 125.343 120 127 120ZM161 117C161 118.657 159.657 120 158 120C156.343 120 155 118.657 155 117C155 115.343 156.343 114 158 114C159.657 114 161 115.343 161 117ZM189 120C190.657 120 192 118.657 192 117C192 115.343 190.657 114 189 114C187.343 114 186 115.343 186 117C186 118.657 187.343 120 189 120ZM223 117C223 118.657 221.657 120 220 120C218.343 120 217 118.657 217 117C217 115.343 218.343 114 220 114C221.657 114 223 115.343 223 117ZM251 120C252.657 120 254 118.657 254 117C254 115.343 252.657 114 251 114C249.343 114 248 115.343 248 117C248 118.657 249.343 120 251 120ZM285 117C285 118.657 283.657 120 282 120C280.343 120 279 118.657 279 117C279 115.343 280.343 114 282 114C283.657 114 285 115.343 285 117ZM313 120C314.657 120 316 118.657 316 117C316 115.343 314.657 114 313 114C311.343 114 310 115.343 310 117C310 118.657 311.343 120 313 120ZM347 117C347 118.657 345.657 120 344 120C342.343 120 341 118.657 341 117C341 115.343 342.343 114 344 114C345.657 114 347 115.343 347 117ZM375 120C376.657 120 378 118.657 378 117C378 115.343 376.657 114 375 114C373.343 114 372 115.343 372 117C372 118.657 373.343 120 375 120ZM6 148C6 149.657 4.65685 151 3 151C1.34315 151 0 149.657 0 148C0 146.343 1.34315 145 3 145C4.65685 145 6 146.343 6 148ZM34 151C35.6569 151 37 149.657 37 148C37 146.343 35.6569 145 34 145C32.3431 145 31 146.343 31 148C31 149.657 32.3431 151 34 151ZM68 148C68 149.657 66.6569 151 65 151C63.3431 151 62 149.657 62 148C62 146.343 63.3431 145 65 145C66.6569 145 68 146.343 68 148ZM96 151C97.6569 151 99 149.657 99 148C99 146.343 97.6569 145 96 145C94.3431 145 93 146.343 93 148C93 149.657 94.3431 151 96 151ZM130 148C130 149.657 128.657 151 127 151C125.343 151 124 149.657 124 148C124 146.343 125.343 145 127 145C128.657 145 130 146.343 130 148ZM158 151C159.657 151 161 149.657 161 148C161 146.343 159.657 145 158 145C156.343 145 155 146.343 155 148C155 149.657 156.343 151 158 151ZM192 148C192 149.657 190.657 151 189 151C187.343 151 186 149.657 186 148C186 146.343 187.343 145 189 145C190.657 145 192 146.343 192 148ZM220 151C221.657 151 223 149.657 223 148C223 146.343 221.657 145 220 145C218.343 145 217 146.343 217 148C217 149.657 218.343 151 220 151ZM254 148C254 149.657 252.657 151 251 151C249.343 151 248 149.657 248 148C248 146.343 249.343 145 251 145C252.657 145 254 146.343 254 148ZM282 151C283.657 151 285 149.657 285 148C285 146.343 283.657 145 282 145C280.343 145 279 146.343 279 148C279 149.657 280.343 151 282 151ZM316 148C316 149.657 314.657 151 313 151C311.343 151 310 149.657 310 148C310 146.343 311.343 145 313 145C314.657 145 316 146.343 316 148ZM344 151C345.657 151 347 149.657 347 148C347 146.343 345.657 145 344 145C342.343 145 341 146.343 341 148C341 149.657 342.343 151 344 151ZM378 148C378 149.657 376.657 151 375 151C373.343 151 372 149.657 372 148C372 146.343 373.343 145 375 145C376.657 145 378 146.343 378 148ZM3 182C4.65685 182 6 180.657 6 179C6 177.343 4.65685 176 3 176C1.34315 176 0 177.343 0 179C0 180.657 1.34315 182 3 182ZM37 179C37 180.657 35.6569 182 34 182C32.3431 182 31 180.657 31 179C31 177.343 32.3431 176 34 176C35.6569 176 37 177.343 37 179ZM65 182C66.6569 182 68 180.657 68 179C68 177.343 66.6569 176 65 176C63.3431 176 62 177.343 62 179C62 180.657 63.3431 182 65 182ZM99 179C99 180.657 97.6569 182 96 182C94.3431 182 93 180.657 93 179C93 177.343 94.3431 176 96 176C97.6569 176 99 177.343 99 179ZM127 182C128.657 182 130 180.657 130 179C130 177.343 128.657 176 127 176C125.343 176 124 177.343 124 179C124 180.657 125.343 182 127 182ZM161 179C161 180.657 159.657 182 158 182C156.343 182 155 180.657 155 179C155 177.343 156.343 176 158 176C159.657 176 161 177.343 161 179ZM189 182C190.657 182 192 180.657 192 179C192 177.343 190.657 176 189 176C187.343 176 186 177.343 186 179C186 180.657 187.343 182 189 182ZM223 179C223 180.657 221.657 182 220 182C218.343 182 217 180.657 217 179C217 177.343 218.343 176 220 176C221.657 176 223 177.343 223 179ZM251 182C252.657 182 254 180.657 254 179C254 177.343 252.657 176 251 176C249.343 176 248 177.343 248 179C248 180.657 249.343 182 251 182ZM285 179C285 180.657 283.657 182 282 182C280.343 182 279 180.657 279 179C279 177.343 280.343 176 282 176C283.657 176 285 177.343 285 179ZM313 182C314.657 182 316 180.657 316 179C316 177.343 314.657 176 313 176C311.343 176 310 177.343 310 179C310 180.657 311.343 182 313 182ZM347 179C347 180.657 345.657 182 344 182C342.343 182 341 180.657 341 179C341 177.343 342.343 176 344 176C345.657 176 347 177.343 347 179ZM375 182C376.657 182 378 180.657 378 179C378 177.343 376.657 176 375 176C373.343 176 372 177.343 372 179C372 180.657 373.343 182 375 182ZM6 210C6 211.657 4.65685 213 3 213C1.34315 213 0 211.657 0 210C0 208.343 1.34315 207 3 207C4.65685 207 6 208.343 6 210ZM34 213C35.6569 213 37 211.657 37 210C37 208.343 35.6569 207 34 207C32.3431 207 31 208.343 31 210C31 211.657 32.3431 213 34 213ZM68 210C68 211.657 66.6569 213 65 213C63.3431 213 62 211.657 62 210C62 208.343 63.3431 207 65 207C66.6569 207 68 208.343 68 210ZM96 213C97.6569 213 99 211.657 99 210C99 208.343 97.6569 207 96 207C94.3431 207 93 208.343 93 210C93 211.657 94.3431 213 96 213ZM130 210C130 211.657 128.657 213 127 213C125.343 213 124 211.657 124 210C124 208.343 125.343 207 127 207C128.657 207 130 208.343 130 210ZM158 213C159.657 213 161 211.657 161 210C161 208.343 159.657 207 158 207C156.343 207 155 208.343 155 210C155 211.657 156.343 213 158 213ZM192 210C192 211.657 190.657 213 189 213C187.343 213 186 211.657 186 210C186 208.343 187.343 207 189 207C190.657 207 192 208.343 192 210ZM220 213C221.657 213 223 211.657 223 210C223 208.343 221.657 207 220 207C218.343 207 217 208.343 217 210C217 211.657 218.343 213 220 213ZM254 210C254 211.657 252.657 213 251 213C249.343 213 248 211.657 248 210C248 208.343 249.343 207 251 207C252.657 207 254 208.343 254 210ZM282 213C283.657 213 285 211.657 285 210C285 208.343 283.657 207 282 207C280.343 207 279 208.343 279 210C279 211.657 280.343 213 282 213ZM316 210C316 211.657 314.657 213 313 213C311.343 213 310 211.657 310 210C310 208.343 311.343 207 313 207C314.657 207 316 208.343 316 210ZM344 213C345.657 213 347 211.657 347 210C347 208.343 345.657 207 344 207C342.343 207 341 208.343 341 210C341 211.657 342.343 213 344 213ZM378 210C378 211.657 376.657 213 375 213C373.343 213 372 211.657 372 210C372 208.343 373.343 207 375 207C376.657 207 378 208.343 378 210ZM3 244C4.65685 244 6 242.657 6 241C6 239.343 4.65685 238 3 238C1.34315 238 0 239.343 0 241C0 242.657 1.34315 244 3 244ZM37 241C37 242.657 35.6569 244 34 244C32.3431 244 31 242.657 31 241C31 239.343 32.3431 238 34 238C35.6569 238 37 239.343 37 241ZM65 244C66.6569 244 68 242.657 68 241C68 239.343 66.6569 238 65 238C63.3431 238 62 239.343 62 241C62 242.657 63.3431 244 65 244ZM99 241C99 242.657 97.6569 244 96 244C94.3431 244 93 242.657 93 241C93 239.343 94.3431 238 96 238C97.6569 238 99 239.343 99 241ZM127 244C128.657 244 130 242.657 130 241C130 239.343 128.657 238 127 238C125.343 238 124 239.343 124 241C124 242.657 125.343 244 127 244ZM161 241C161 242.657 159.657 244 158 244C156.343 244 155 242.657 155 241C155 239.343 156.343 238 158 238C159.657 238 161 239.343 161 241ZM189 244C190.657 244 192 242.657 192 241C192 239.343 190.657 238 189 238C187.343 238 186 239.343 186 241C186 242.657 187.343 244 189 244ZM223 241C223 242.657 221.657 244 220 244C218.343 244 217 242.657 217 241C217 239.343 218.343 238 220 238C221.657 238 223 239.343 223 241ZM251 244C252.657 244 254 242.657 254 241C254 239.343 252.657 238 251 238C249.343 238 248 239.343 248 241C248 242.657 249.343 244 251 244ZM285 241C285 242.657 283.657 244 282 244C280.343 244 279 242.657 279 241C279 239.343 280.343 238 282 238C283.657 238 285 239.343 285 241ZM313 244C314.657 244 316 242.657 316 241C316 239.343 314.657 238 313 238C311.343 238 310 239.343 310 241C310 242.657 311.343 244 313 244ZM347 241C347 242.657 345.657 244 344 244C342.343 244 341 242.657 341 241C341 239.343 342.343 238 344 238C345.657 238 347 239.343 347 241ZM375 244C376.657 244 378 242.657 378 241C378 239.343 376.657 238 375 238C373.343 238 372 239.343 372 241C372 242.657 373.343 244 375 244ZM6 272C6 273.657 4.65685 275 3 275C1.34315 275 0 273.657 0 272C0 270.343 1.34315 269 3 269C4.65685 269 6 270.343 6 272ZM34 275C35.6569 275 37 273.657 37 272C37 270.343 35.6569 269 34 269C32.3431 269 31 270.343 31 272C31 273.657 32.3431 275 34 275ZM68 272C68 273.657 66.6569 275 65 275C63.3431 275 62 273.657 62 272C62 270.343 63.3431 269 65 269C66.6569 269 68 270.343 68 272ZM96 275C97.6569 275 99 273.657 99 272C99 270.343 97.6569 269 96 269C94.3431 269 93 270.343 93 272C93 273.657 94.3431 275 96 275ZM130 272C130 273.657 128.657 275 127 275C125.343 275 124 273.657 124 272C124 270.343 125.343 269 127 269C128.657 269 130 270.343 130 272ZM158 275C159.657 275 161 273.657 161 272C161 270.343 159.657 269 158 269C156.343 269 155 270.343 155 272C155 273.657 156.343 275 158 275ZM192 272C192 273.657 190.657 275 189 275C187.343 275 186 273.657 186 272C186 270.343 187.343 269 189 269C190.657 269 192 270.343 192 272ZM220 275C221.657 275 223 273.657 223 272C223 270.343 221.657 269 220 269C218.343 269 217 270.343 217 272C217 273.657 218.343 275 220 275ZM254 272C254 273.657 252.657 275 251 275C249.343 275 248 273.657 248 272C248 270.343 249.343 269 251 269C252.657 269 254 270.343 254 272ZM282 275C283.657 275 285 273.657 285 272C285 270.343 283.657 269 282 269C280.343 269 279 270.343 279 272C279 273.657 280.343 275 282 275ZM316 272C316 273.657 314.657 275 313 275C311.343 275 310 273.657 310 272C310 270.343 311.343 269 313 269C314.657 269 316 270.343 316 272ZM344 275C345.657 275 347 273.657 347 272C347 270.343 345.657 269 344 269C342.343 269 341 270.343 341 272C341 273.657 342.343 275 344 275ZM378 272C378 273.657 376.657 275 375 275C373.343 275 372 273.657 372 272C372 270.343 373.343 269 375 269C376.657 269 378 270.343 378 272Z" fill="#F2F2F2"/>
</svg>
