<svg viewBox="0 0 200 200" fill="none" xmlns="http://www.w3.org/2000/svg">
<rect width="200" height="200" fill="white"/>
<path d="M175.694 126.4C171.432 151.501 149.647 171.282 125.269 178.63C103.514 185.188 81.9728 173.01 63.1158 160.333C47.2442 149.663 37.0914 134.098 31.7232 115.742C25.3677 94.01 18.5795 69.9837 31.1943 51.1814C45.2323 30.2577 70.9569 16.735 95.9369 20.031C119.182 23.098 130.308 47.3557 144.374 66.1146C158.666 85.1762 179.682 102.911 175.694 126.4Z" fill="#F7F9F8"/>
<rect opacity="0.2" x="70" y="57" width="51" height="67" rx="5" fill="#1BA69F"/>
<path opacity="0.2" d="M69.8786 26.7127C77.7396 39.8555 70.5335 48.1143 57.3906 55.9754C44.961 63.4098 28.6754 68.2334 21.241 55.8039C13.8019 43.3665 19.8699 33.18 32.3073 25.7409C45.4576 17.8754 62.0131 13.5623 69.8786 26.7127Z" fill="#189BB5"/>
<path opacity="0.2" d="M163.829 167.756C157.692 178.492 143.643 180.717 132.907 174.581C123.856 169.407 124.283 157.16 129.456 148.11C135.077 138.276 149.906 123.14 159.74 128.761C171.144 135.279 170.347 156.352 163.829 167.756Z" fill="#138AC5"/>
<g clip-path="url(#clip0)">
<path d="M113.127 106.368C112.599 106.368 112.172 106.795 112.172 107.322V127.676C112.172 130.296 110.042 132.427 107.422 132.427H62.2987C63.54 131.208 64.3138 129.51 64.3138 127.63L64.3109 108.98C64.3109 108.976 64.3138 108.973 64.3138 108.968C64.3138 108.963 64.3109 108.959 64.3109 108.955L64.3062 71.1588C64.3062 70.3001 64.6439 69.4891 65.2555 68.8756C65.869 68.2621 66.6791 67.9244 67.5387 67.9244H108.939C110.722 67.9244 112.173 69.3756 112.173 71.1588V81.9261C112.173 82.4527 112.6 82.8802 113.128 82.8802C113.655 82.8802 114.082 82.4527 114.082 81.9261V71.1588C114.082 68.3232 111.775 66.0161 108.939 66.0161H67.5387C66.1696 66.0161 64.8805 66.5523 63.9064 67.5265C62.9322 68.5006 62.397 69.7906 62.3979 71.1588L62.4027 108.014H51.9541C51.4265 108.014 51 108.441 51 108.968V127.63C51 131.328 53.9864 134.335 57.6569 134.335H107.423C111.094 134.335 114.082 131.349 114.082 127.676V107.322C114.081 106.796 113.654 106.368 113.127 106.368ZM52.9082 127.63V109.922H62.4027L62.4056 127.63C62.4056 130.275 60.275 132.427 57.6559 132.427C55.0369 132.427 52.9082 130.275 52.9082 127.63ZM106.162 83.1569C106.162 83.6836 105.736 84.111 105.208 84.111H70.8925C70.3648 84.111 69.9383 83.6836 69.9383 83.1569C69.9383 82.6302 70.3648 82.2028 70.8925 82.2028H105.209C105.736 82.2028 106.162 82.6302 106.162 83.1569ZM106.162 90.7832C106.162 91.3098 105.736 91.7373 105.208 91.7373H70.8925C70.3648 91.7373 69.9383 91.3098 69.9383 90.7832C69.9383 90.2565 70.3648 89.829 70.8925 89.829H105.209C105.736 89.829 106.162 90.2555 106.162 90.7832ZM105.208 99.3617H70.8925C70.3648 99.3617 69.9383 98.9342 69.9383 98.4075C69.9383 97.8809 70.3648 97.4534 70.8925 97.4534H105.209C105.737 97.4534 106.163 97.8809 106.163 98.4075C106.163 98.9342 105.736 99.3617 105.208 99.3617ZM93.7703 105.081C94.298 105.081 94.7245 105.508 94.7245 106.035C94.7245 106.561 94.298 106.989 93.7703 106.989H70.8925C70.3648 106.989 69.9383 106.561 69.9383 106.035C69.9383 105.508 70.3648 105.081 70.8925 105.081H93.7703Z" fill="url(#paint0_linear)"/>
<mask id="mask0" mask-type="alpha" maskUnits="userSpaceOnUse" x="107" y="64" width="39" height="39">
<path fill-rule="evenodd" clip-rule="evenodd" d="M145.18 79.6486C145.18 71.4677 138.378 64.82 130.006 64.82C121.635 64.82 114.833 71.4677 114.833 79.6486C114.833 83.332 116.207 86.7018 118.487 89.2982L108.166 99.4086C107.462 100.098 107.463 101.231 108.168 101.92C108.85 102.586 109.939 102.587 110.622 101.921L121.137 91.6697C123.633 93.4346 126.694 94.4773 130.006 94.4773C138.378 94.4773 145.18 87.8296 145.18 79.6486ZM130.53 91.994C123.279 91.994 117.4 86.2512 117.4 79.167C117.4 72.0828 123.279 66.34 130.53 66.34C137.781 66.34 143.66 72.0828 143.66 79.167C143.66 86.2512 137.781 91.994 130.53 91.994Z" fill="black"/>
</mask>
<g mask="url(#mask0)">
<rect width="101" height="101" transform="matrix(-1 0 0 1 178 32)" fill="url(#paint1_linear)"/>
</g>
</g>
<defs>
<linearGradient id="paint0_linear" x1="51" y1="100.176" x2="114.082" y2="100.176" gradientUnits="userSpaceOnUse">
<stop stop-color="#1BA79C"/>
<stop offset="1" stop-color="#189BB5"/>
</linearGradient>
<linearGradient id="paint1_linear" x1="0" y1="50.5" x2="101" y2="50.5" gradientUnits="userSpaceOnUse">
<stop stop-color="#1BA79C"/>
<stop offset="1" stop-color="#189BB5"/>
</linearGradient>
<clipPath id="clip0">
<rect width="100" height="100" fill="white" transform="translate(50 50)"/>
</clipPath>
</defs>
</svg>
