<svg viewBox="0 0 90 90" fill="none" xmlns="http://www.w3.org/2000/svg">
<circle cx="45" cy="45" r="45" fill="#D7E0DF"/>
<path d="M45 56.1944C37.7669 56.1944 31.9032 50.3308 31.9032 43.0977H16.9355V65.5493H73.0645V43.0977H58.0968C58.0968 50.3308 52.2331 56.1944 45 56.1944Z" fill="#70C1BA"/>
<path d="M73.9392 42.7643L66.4554 23.1191C66.317 22.756 65.9689 22.5166 65.5806 22.5166H24.4194C24.0311 22.5166 23.683 22.756 23.5446 23.1191L16.0608 42.7643C16.0265 42.8606 16.0082 42.9616 16.0064 43.0634C16.0064 43.0758 16 43.0849 16 43.0972V65.5489C16 66.0655 16.4189 66.4843 16.9355 66.4843H73.0645C73.5811 66.4843 74 66.0655 74 65.5489V43.0972C74 43.0849 73.9936 43.0758 73.9936 43.0634C73.9918 42.9616 73.9735 42.8606 73.9392 42.7643ZM25.0639 24.3876H64.9361L71.707 42.1618H58.0968C57.5802 42.1618 57.1613 42.5806 57.1613 43.0972C57.1613 49.8137 51.7165 55.2585 45 55.2585C38.2835 55.2585 32.8387 49.8137 32.8387 43.0972C32.8387 42.5806 32.4198 42.1618 31.9032 42.1618H18.293L25.0639 24.3876ZM72.129 64.6134H17.871V44.0327H30.9988C31.4885 51.4052 37.6111 57.1345 45 57.1345C52.3889 57.1345 58.5115 51.4052 59.0012 44.0327H72.129V64.6134Z" fill="#49A49C"/>
<path d="M22.5484 60.8708H21.6129V58.0644C21.6129 57.5478 21.194 57.1289 20.6774 57.1289C20.1608 57.1289 19.7419 57.5478 19.7419 58.0644V61.8063C19.7419 62.3229 20.1608 62.7418 20.6774 62.7418H22.5484C23.065 62.7418 23.4839 62.3229 23.4839 61.8063C23.4839 61.2897 23.065 60.8708 22.5484 60.8708Z" fill="#49A49C"/>
<path d="M28.1613 60.8711H26.2903C25.7737 60.8711 25.3549 61.29 25.3549 61.8066C25.3549 62.3232 25.7737 62.7421 26.2903 62.7421H28.1613C28.6779 62.7421 29.0968 62.3232 29.0968 61.8066C29.0968 61.29 28.6779 60.8711 28.1613 60.8711Z" fill="#49A49C"/>
</svg>
