<svg viewBox="0 0 173 53" fill="none" xmlns="http://www.w3.org/2000/svg">
    <title>Zipcopi logo</title>
    <desc>Zipcopi logo</desc>
    <path fill-rule="evenodd" clip-rule="evenodd" d="M31.3562 0.0687086L163.353 3.32554C164.061 -1.33811 171.6 -1.09662 171.6 4.05C171.6 9.22347 164.256 9.53061 163.384 4.97143L30.6 8.25006V8.17473C28.5085 8.19698 26.4 6.82207 26.4 4.05C26.4 0.998325 29.0508 -0.328772 31.3562 0.0687086ZM27.1 11.95V40.45H34.1V11.95H27.1ZM23.8 12.05V15.3501L10.7 33.4501H23.9V40.3501H0V37.4501L13.6 18.4501H1.09999V12.05H23.8ZM38.3 12.1501V52.3501H45.5001V37.1501C47.5001 40.2501 51.9001 41.1501 54.9001 41.1501C64.0001 41.1501 69.2 34.6501 69.2 26.3501C69.2 18.0501 63.3001 11.55 54.6001 11.55C51.4001 11.55 47.6001 12.85 45.4001 16.05L44.9001 12.1501H38.3ZM53.9001 18.2501C59.0001 18.2501 62.0001 21.9501 62.0001 26.3501C62.0001 30.7501 58.8001 34.3501 53.9001 34.4501C49.1001 34.4501 45.8 30.7501 45.8 26.3501C45.8 21.8501 48.8001 18.2501 53.9001 18.2501ZM96.4 36.8501C93.1 40.0501 89.7 41.3501 85.5 41.3501C77.3 41.3501 70.4 36.4501 70.4 26.3501C70.4 16.2501 77.2 11.3501 85.5 11.3501C89.5 11.3501 92.6 12.5501 95.7 15.5501L91.3 20.2501C89.6 18.7501 87.6 18.0501 85.6 18.0501C80.9 18.0501 77.4 21.5501 77.4 26.4501C77.4 31.8501 81.1 34.7501 85.5 34.7501C87.7 34.7501 90 34.1501 91.7 32.3501L96.4 36.8501ZM111.4 41.1501C120.6 41.1501 126.2 34.5501 126.2 26.3501C126.2 18.1501 120.4 11.55 111.4 11.55C102.3 11.55 96.7 18.2501 96.7 26.3501C96.7 34.5501 102.2 41.1501 111.4 41.1501ZM111.4 34.6501C106.3 34.6501 103.7 30.6501 103.7 26.3501C103.7 22.0501 106.3 17.9501 111.4 17.9501C116.1 17.9501 119.1 22.0501 119.1 26.3501C119.1 30.6501 116.5 34.6501 111.4 34.6501ZM128.9 52.3501V12.1501H135.5L136 16.05C138.2 12.85 142 11.55 145.2 11.55C153.9 11.55 159.8 18.0501 159.8 26.3501C159.8 34.6501 154.6 41.1501 145.5 41.1501C142.5 41.1501 138.1 40.2501 136.1 37.1501V52.3501H128.9ZM152.7 26.3501C152.7 21.9501 149.7 18.2501 144.6 18.2501C139.5 18.2501 136.5 21.8501 136.5 26.3501C136.5 30.7501 139.8 34.4501 144.6 34.4501C149.4 34.3501 152.7 30.7501 152.7 26.3501ZM172.6 18.4499C172.6 18.3499 172.6 18.2499 172.5 18.1499L167.9 9.94991C167.8 9.74991 167.6 9.6499 167.3 9.6499C167.154 9.6499 167.061 9.70349 166.943 9.77145C166.9 9.79631 166.854 9.82311 166.8 9.8499L166.7 9.94991L162.2 18.1499C162.1 18.2499 162.1 18.3499 162.1 18.4499L162 43.0499C162 43.7499 162.3 44.3499 162.8 44.8499C163.3 45.3499 163.9 45.6499 164.6 45.6499H170.1C171.5 45.6499 172.7 44.4499 172.7 43.0499L172.6 18.4499ZM171.4 37.7499H168.1V20.2499L170 20.8499C170.2 20.9499 170.5 20.8499 170.7 20.6499L171.4 19.9499V37.7499ZM165.2 15.5499H169.6L171.2 18.3499L170 19.5499L167.6 18.7499H167.2L164.8 19.5499L163.6 18.3499L165.2 15.5499ZM170.1 44.3499H164.6C164.3 44.3499 163.9 44.2499 163.7 43.9499C163.5 43.7499 163.3 43.3499 163.3 43.0499V39.0499H171.3V43.0499C171.4 43.7499 170.8 44.3499 170.1 44.3499Z" fill="#394C4A"/>
</svg>
